<?xml version="1.0" encoding="utf-8"?>
<!-- Generator: Adobe Illustrator 23.0.5, SVG Export Plug-In . SVG Version: 6.00 Build 0)  -->
<svg version="1.1" id="Layer_1" xmlns="http://www.w3.org/2000/svg" xmlns:xlink="http://www.w3.org/1999/xlink" x="0px" y="0px"
	 viewBox="0 0 2299 617" style="enable-background:new 0 0 2299 617;" xml:space="preserve">
<style type="text/css">
	.st0{fill:#18557C;}
	.st1{fill:#FFFFFF;}
	.st2{fill:#7ABD43;}
</style>
<rect class="st0" width="2299" height="617"/>
<circle class="st1" cx="1149.5" cy="-80" r="324.04"/>
<g>
	<path class="st0" d="M1005.6,68.36c-5.51-5.25-13.83-7.94-21-7.94c-17.03,0-28.17,9.73-28.17,29.32c0,12.8,7.04,28.81,28.17,28.81
		c6.27,0,12.16-1.02,19.08-6.27V97.94H982.3V81.29h38.66v39.05c-7.68,11.01-19.97,16.64-36.49,16.64
		c-34.57,0-47.63-23.94-47.63-47.24c0-25.22,14.85-47.63,47.75-47.63c12.16,0,23.17,3.33,33.42,13.83L1005.6,68.36z"/>
	<path class="st0" d="M1031.08,102.93c0-19.08,13.57-33.16,34.57-33.16c21.12,0,34.7,14.08,34.7,33.16c0,19.08-13.19,32.9-34.7,32.9
		C1044.26,135.83,1031.08,122,1031.08,102.93z M1081.65,102.93c0-7.94-4.87-16.64-16-16.64c-11.01,0-15.88,8.71-15.88,16.64
		c0,7.94,4.74,16.52,15.88,16.52C1076.91,119.44,1081.65,111.25,1081.65,102.93z"/>
	<path class="st0" d="M1201.48,134.29h-16.39l-19.2-50.06l-18.56,50.06h-16.39l-33.42-89.49h22.4l11.14,30.6l8.07,28.93l20.1-59.53
		h13.06l21,59.53l7.68-28.81l10.63-30.73h22.4L1201.48,134.29z"/>
	<path class="st1" d="M1280.34,95.37c-0.38-6.91-7.43-10.11-15.11-10.11c-7.43,0-13.06,3.84-14.85,10.11H1280.34z"/>
	<path class="st0" d="M1327.71,44.93v89.49h-18.31V44.93H1327.71z"/>
	<path class="st0" d="M1362.15,44.93v89.49h-18.31V44.93H1362.15z"/>
	<path class="st0" d="M1297.48,102.6c0-18.12-14.69-32.81-32.81-32.81s-32.81,14.69-32.81,32.81c0,2.13,0.2,4.21,0.59,6.22h64.45
		C1297.27,106.8,1297.48,104.72,1297.48,102.6z"/>
	<path class="st1" d="M1277.05,94.85c0-5.3-5.55-9.59-12.39-9.59s-12.39,4.29-12.39,9.59c0,0.62,0.08,1.23,0.22,1.82h24.33
		C1276.97,96.08,1277.05,95.47,1277.05,94.85z"/>
	<path class="st2" d="M1264.66,135.41c10.81,0,20.39-5.23,26.37-13.3h-52.74C1244.27,130.18,1253.85,135.41,1264.66,135.41z"/>
</g>
<polygon class="st1" points="1001.44,55.57 1001.45,55.56 1001.45,55.57 "/>
<polygon class="st1" points="984.63,26.44 985.07,26.7 984.63,26.95 "/>
<g>
	<polygon class="st1" points="621.05,315.29 621.19,315.37 621.05,315.45 	"/>
	<polygon class="st1" points="587.26,315.37 588.01,314.94 588.01,315.81 	"/>
	<polygon class="st1" points="636.96,286.5 638.16,285.81 638.16,287.2 	"/>
	<polygon class="st1" points="570.13,284.83 573.03,286.5 570.13,288.18 	"/>
	<polygon class="st1" points="537.55,344.23 537.87,344.05 537.87,344.42 	"/>
	<polygon class="st1" points="619.94,255.64 623.4,257.64 619.94,259.63 	"/>
	<polygon class="st1" points="584.74,257.64 589.27,255.02 589.27,260.25 	"/>
	<polygon class="st1" points="535.2,286.5 539.04,284.29 539.04,288.72 	"/>
	<polygon class="st1" points="520.25,313.92 522.77,315.37 520.25,316.82 	"/>
	<polygon class="st1" points="670.97,286.29 671.34,286.5 670.97,286.71 	"/>
	<polygon class="st1" points="669.92,226.73 673.44,228.77 669.92,230.81 	"/>
	<polygon class="st1" points="634.34,228.77 639.47,225.81 639.47,231.72 	"/>
	<polygon class="st1" points="568.47,224.23 576.33,228.77 568.47,233.3 	"/>
	<polygon class="st1" points="531.6,228.77 540.84,223.43 540.84,234.1 	"/>
	<polygon class="st1" points="518.75,253.58 525.78,257.64 518.75,261.69 	"/>
	<polygon class="st1" points="484.97,315.37 489.16,312.95 489.16,317.79 	"/>
	<polygon class="st1" points="470.06,342.44 473.17,344.23 470.06,346.03 	"/>
	<polygon class="st1" points="487.44,373.11 487.92,372.83 487.92,373.38 	"/>
	<polygon class="st1" points="687.05,257.64 688.11,257.03 688.11,258.25 	"/>
	<polygon class="st1" points="684.74,199.9 689.27,197.28 689.27,202.52 	"/>
	<polygon class="st1" points="618.25,194.97 626.78,199.9 618.25,204.83 	"/>
	<polygon class="st1" points="580.88,199.9 591.2,193.95 591.2,205.86 	"/>
	<polygon class="st1" points="516.65,192.2 529.99,199.9 516.65,207.6 	"/>
	<polygon class="st1" points="482.04,257.64 490.62,252.68 490.62,262.6 	"/>
	<polygon class="st1" points="468.74,282.43 475.8,286.5 468.74,290.57 	"/>
	<polygon class="st1" points="434.27,344.23 439.51,341.21 439.51,347.27 	"/>
	<polygon class="st1" points="721.08,257.62 721.1,257.64 721.08,257.65 	"/>
	<polygon class="st1" points="668.58,166.69 676.11,171.04 668.58,175.38 	"/>
	<polygon class="st1" points="631.11,171.04 641.08,165.28 641.08,176.79 	"/>
	<polygon class="st1" points="566.46,163.01 580.35,171.04 566.46,179.06 	"/>
	<polygon class="st1" points="527.53,171.04 542.88,162.18 542.88,179.89 	"/>
	<polygon class="st1" points="477.75,199.9 492.77,191.23 492.77,208.58 	"/>
	<polygon class="st1" points="466.87,221.45 479.55,228.77 466.87,236.09 	"/>
	<polygon class="st1" points="431.49,286.5 440.9,281.07 440.9,291.94 	"/>
	<polygon class="st1" points="418.15,310.27 426.99,315.37 418.15,320.47 	"/>
	<polygon class="st1" points="419.54,370.42 424.2,373.11 419.54,375.79 	"/>
	<polygon class="st1" points="436.75,401.97 438.27,401.09 438.27,402.85 	"/>
	<polygon class="st1" points="737.3,228.77 737.98,228.37 737.98,229.17 	"/>
	<polygon class="st1" points="720.18,198.32 722.92,199.9 720.18,201.48 	"/>
	<polygon class="st1" points="719.11,138.75 725.04,142.17 719.11,145.59 	"/>
	<polygon class="st1" points="682.39,142.17 690.44,137.52 690.44,146.81 	"/>
	<polygon class="st1" points="616.69,134.54 629.89,142.17 616.69,149.79 	"/>
	<polygon class="st1" points="577.55,142.17 592.87,133.33 592.87,151.01 	"/>
	<polygon class="st1" points="514.95,131.52 533.39,142.17 514.95,152.81 	"/>
	<polygon class="st1" points="474.61,142.17 494.34,130.78 494.34,153.55 	"/>
	<polygon class="st1" points="464.99,160.46 483.3,171.04 464.99,181.61 	"/>
	<polygon class="st1" points="427.86,228.77 442.71,220.19 442.71,237.35 	"/>
	<polygon class="st1" points="416.63,249.91 430.02,257.64 416.63,265.37 	"/>
	<polygon class="st1" points="379.53,315.37 391.88,308.24 391.88,322.5 	"/>
	<polygon class="st1" points="367.07,337.26 379.16,344.23 367.07,351.22 	"/>
	<polygon class="st1" points="382.42,373.11 390.43,368.48 390.43,377.73 	"/>
	<polygon class="st1" points="420.71,430.18 421.86,430.84 420.71,431.5 	"/>
	<polygon class="st1" points="735.44,171.04 738.92,169.02 738.92,173.05 	"/>
	<polygon class="st1" points="733.56,113.3 739.85,109.67 739.85,116.93 	"/>
	<polygon class="st1" points="667.34,106.81 678.59,113.3 667.34,119.79 	"/>
	<polygon class="st1" points="628.53,113.3 642.38,105.3 642.38,121.3 	"/>
	<polygon class="st1" points="565.07,102.87 583.14,113.3 565.07,123.73 	"/>
	<polygon class="st1" points="524.71,113.3 544.29,101.99 544.29,124.61 	"/>
	<polygon class="st1" points="463.91,100.86 485.47,113.3 463.91,125.74 	"/>
	<polygon class="st1" points="424.5,171.04 444.39,159.55 444.39,182.52 	"/>
	<polygon class="st1" points="414.81,189.02 433.66,199.9 414.81,210.78 	"/>
	<polygon class="st1" points="376.63,257.64 393.33,248 393.33,267.27 	"/>
	<polygon class="st1" points="365.7,277.15 381.89,286.5 365.7,295.85 	"/>
	<polygon class="st1" points="326.77,344.23 343.26,334.72 343.26,353.76 	"/>
	<polygon class="st1" points="368.57,397.6 376.14,401.97 368.57,406.34 	"/>
	<polygon class="st1" points="385.21,430.84 389.03,428.63 389.03,433.04 	"/>
	<polygon class="st1" points="770.52,170.05 772.23,171.04 770.52,172.02 	"/>
	<polygon class="st1" points="718.18,79.38 726.93,84.43 718.18,89.48 	"/>
	<polygon class="st1" points="680.31,84.43 691.48,77.98 691.48,90.88 	"/>
	<polygon class="st1" points="615.63,74.97 632.02,84.43 615.63,93.9 	"/>
	<polygon class="st1" points="575.43,84.43 593.92,73.75 593.92,95.11 	"/>
	<polygon class="st1" points="514.02,72.18 535.24,84.43 514.02,96.68 	"/>
	<polygon class="st1" points="473.12,84.43 495.08,71.76 495.08,97.11 	"/>
	<polygon class="st1" points="422.66,113.3 445.31,100.22 445.31,126.38 	"/>
	<polygon class="st1" points="413.68,129.32 435.93,142.17 413.68,155.01 	"/>
	<polygon class="st1" points="373.6,199.9 394.84,187.63 394.84,212.17 	"/>
	<polygon class="st1" points="364.18,216.8 384.92,228.77 364.18,240.74 	"/>
	<polygon class="st1" points="324.15,286.5 344.57,274.71 344.57,298.29 	"/>
	<polygon class="st1" points="314.11,303.26 335.07,315.37 314.11,327.48 	"/>
	<polygon class="st1" points="315.54,363.49 332.2,373.11 315.54,382.72 	"/>
	<polygon class="st1" points="330.04,401.97 341.62,395.28 341.62,408.67 	"/>
	<polygon class="st1" points="369.98,457.77 373.33,459.71 369.98,461.64 	"/>
	<polygon class="st1" points="387.31,488.58 387.98,488.19 387.98,488.96 	"/>
	<polygon class="st1" points="786.34,142.17 788.47,140.94 788.47,143.4 	"/>
	<polygon class="st1" points="769.64,110.79 773.99,113.3 769.64,115.81 	"/>
	<polygon class="st1" points="768.87,51.73 775.53,55.57 768.87,59.41 	"/>
	<polygon class="st1" points="731.83,55.57 740.72,50.43 740.72,60.7 	"/>
	<polygon class="st1" points="666.52,47.64 680.24,55.57 666.52,63.49 	"/>
	<polygon class="st1" points="626.88,55.57 643.2,46.15 643.2,64.99 	"/>
	<polygon class="st1" points="564.45,44.05 584.39,55.57 564.45,67.08 	"/>
	<polygon class="st1" points="523.58,55.57 544.85,43.28 544.85,67.85 	"/>
	<polygon class="st1" points="463.56,42.53 486.15,55.57 463.56,68.61 	"/>
	<polygon class="st1" points="422.44,55.57 445.42,42.3 445.42,68.83 	"/>
	<polygon class="st1" points="413.3,70.93 436.69,84.43 413.3,97.94 	"/>
	<polygon class="st1" points="372.05,142.17 395.62,128.56 395.62,155.77 	"/>
	<polygon class="st1" points="363.22,157.39 386.85,171.04 363.22,184.68 	"/>
	<polygon class="st1" points="321.56,228.77 345.86,214.74 345.86,242.8 	"/>
	<polygon class="st1" points="312.86,243.38 337.56,257.64 312.86,271.89 	"/>
	<polygon class="st1" points="270.91,315.37 296.19,300.77 296.19,329.97 	"/>
	<polygon class="st1" points="262.55,329.43 288.19,344.23 262.55,359.04 	"/>
	<polygon class="st1" points="273.69,373.11 294.8,360.91 294.8,385.29 	"/>
	<polygon class="st1" points="317.4,424.43 328.49,430.84 317.4,437.24 	"/>
	<polygon class="st1" points="333.34,459.71 339.97,455.87 339.97,463.54 	"/>
	<polygon class="st1" points="370.95,517.18 371.39,517.44 370.95,517.7 	"/>
	<polygon class="st1" points="820.82,141.7 821.63,142.17 820.82,142.64 	"/>
	<polygon class="st1" points="784.77,84.43 789.25,81.85 789.25,87.02 	"/>
	<polygon class="st1" points="783.25,26.7 790.01,22.8 790.01,30.6 	"/>
	<polygon class="st1" points="717.35,20.23 728.56,26.7 717.35,33.16 	"/>
	<polygon class="st1" points="678.82,26.7 692.23,18.96 692.23,34.44 	"/>
	<polygon class="st1" points="615.08,16.29 633.11,26.7 615.08,37.1 	"/>
	<polygon class="st1" points="574.52,26.7 594.38,15.23 594.38,38.17 	"/>
	<polygon class="st1" points="513.79,14.05 535.7,26.7 513.79,39.34 	"/>
	<polygon class="st1" points="472.9,26.7 495.19,13.83 495.19,39.57 	"/>
	<polygon class="st1" points="413.53,13.59 436.23,26.7 413.53,39.8 	"/>
	<polygon class="st1" points="371.83,84.43 395.73,70.64 395.73,98.23 	"/>
	<polygon class="st1" points="362.94,99.17 387.41,113.3 362.94,127.43 	"/>
	<polygon class="st1" points="320.54,171.04 346.38,156.12 346.38,185.96 	"/>
	<polygon class="st1" points="312.14,184.39 339.01,199.9 312.14,215.42 	"/>
	<polygon class="st1" points="268.85,257.64 297.22,241.25 297.22,274.02 	"/>
	<polygon class="st1" points="261.48,269.85 290.33,286.5 261.48,303.16 	"/>
	<polygon class="st1" points="217.92,344.23 247.69,327.05 247.69,361.42 	"/>
	<polygon class="st1" points="264.31,390.21 284.68,401.97 264.31,413.74 	"/>
	<polygon class="st1" points="277.65,430.84 292.82,422.07 292.82,439.6 	"/>
	<polygon class="st1" points="319.13,485.17 325.02,488.58 319.13,491.97 	"/>
	<polygon class="st1" points="336.03,517.44 338.63,515.93 338.63,518.94 	"/>
	<polygon class="st1" points="836.85,113.3 838.21,112.52 838.21,114.08 	"/>
	<polygon class="st1" points="820.1,82.72 823.07,84.43 820.1,86.15 	"/>
	<polygon class="st1" points="768.09,-7.36 777.09,-2.17 768.09,3.03 	"/>
	<polygon class="st1" points="730.27,-2.17 741.5,-8.65 741.5,4.32 	"/>
	<polygon class="st1" points="665.92,-11.12 681.42,-2.17 665.92,6.78 	"/>
	<polygon class="st1" points="625.97,-2.17 643.65,-12.37 643.65,8.03 	"/>
	<polygon class="st1" points="564.35,-13.86 584.59,-2.17 564.35,9.52 	"/>
	<polygon class="st1" points="523.68,-2.17 544.8,-14.36 544.8,10.02 	"/>
	<polygon class="st1" points="464.02,-14.42 485.24,-2.17 464.02,10.08 	"/>
	<polygon class="st1" points="423.72,-2.17 444.78,-14.33 444.78,9.99 	"/>
	<polygon class="st1" points="372.82,26.7 395.23,13.76 395.23,39.64 	"/>
	<polygon class="st1" points="363.28,42.02 386.74,55.57 363.28,69.11 	"/>
	<polygon class="st1" points="320.79,113.3 346.25,98.6 346.25,127.99 	"/>
	<polygon class="st1" points="312.23,126.82 338.82,142.17 312.23,157.52 	"/>
	<polygon class="st1" points="267.95,199.9 297.67,182.74 297.67,217.07 	"/>
	<polygon class="st1" points="260.78,210.9 291.74,228.77 260.78,246.64 	"/>
	<polygon class="st1" points="216.25,286.5 248.52,267.87 248.52,305.14 	"/>
	<polygon class="st1" points="210.03,296.21 243.23,315.37 210.03,334.54 	"/>
	<polygon class="st1" points="211.23,356.01 240.83,373.11 211.23,390.2 	"/>
	<polygon class="st1" points="221.38,401.97 245.96,387.78 245.96,416.16 	"/>
	<polygon class="st1" points="266.49,451.72 280.32,459.71 266.49,467.69 	"/>
	<polygon class="st1" points="281.77,488.58 290.76,483.38 290.76,493.76 	"/>
	<polygon class="st1" points="320.31,544.94 322.66,546.31 320.31,547.67 	"/>
	<polygon class="st1" points="337.76,575.17 337.76,575.17 337.76,575.18 	"/>
	<polygon class="st1" points="870.94,113.05 871.39,113.3 870.94,113.56 	"/>
	<polygon class="st1" points="835.54,55.57 838.86,53.65 838.86,57.48 	"/>
	<polygon class="st1" points="819.39,23.76 824.48,26.7 819.39,29.64 	"/>
	<polygon class="st1" points="364.34,-13.87 384.6,-2.17 364.34,9.53 	"/>
	<polygon class="st1" points="321.92,55.57 345.68,41.84 345.68,69.29 	"/>
	<polygon class="st1" points="312.77,70.01 337.75,84.43 312.77,98.86 	"/>
	<polygon class="st1" points="268.98,142.17 297.16,125.9 297.16,158.43 	"/>
	<polygon class="st1" points="261.06,153.64 291.18,171.04 261.06,188.42 	"/>
	<polygon class="st1" points="215.34,228.77 248.97,209.35 248.97,248.19 	"/>
	<polygon class="st1" points="209.45,237.46 244.4,257.64 209.45,277.82 	"/>
	<polygon class="st1" points="163.77,315.37 199.76,294.59 199.76,336.15 	"/>
	<polygon class="st1" points="159.01,323.29 195.28,344.23 159.01,365.18 	"/>
	<polygon class="st1" points="165.56,373.11 198.87,353.87 198.87,392.34 	"/>
	<polygon class="st1" points="213.27,417.29 236.75,430.84 213.27,444.39 	"/>
	<polygon class="st1" points="225.97,459.71 243.66,449.49 243.66,469.92 	"/>
	<polygon class="st1" points="268.44,512.84 276.41,517.44 268.44,522.04 	"/>
	<polygon class="st1" points="284.69,546.31 289.3,543.64 289.3,548.97 	"/>
	<polygon class="st1" points="887.15,84.43 888.06,83.91 888.06,84.96 	"/>
	<polygon class="st1" points="870.4,54.36 872.48,55.57 870.4,56.77 	"/>
	<polygon class="st1" points="834.09,-2.17 839.59,-5.35 839.59,1 	"/>
	<polygon class="st1" points="324.57,-2.17 344.36,-13.59 344.36,9.25 	"/>
	<polygon class="st1" points="313.69,13.86 335.92,26.7 313.69,39.54 	"/>
	<polygon class="st1" points="270.77,84.43 296.26,69.72 296.26,99.15 	"/>
	<polygon class="st1" points="261.99,97.51 289.33,113.3 261.99,129.09 	"/>
	<polygon class="st1" points="216.57,171.04 248.36,152.68 248.36,189.39 	"/>
	<polygon class="st1" points="209.76,180.27 243.76,199.9 209.76,219.53 	"/>
	<polygon class="st1" points="162.99,257.64 200.15,236.18 200.15,279.09 	"/>
	<polygon class="st1" points="158.58,264.82 196.14,286.5 158.58,308.19 	"/>
	<polygon class="st1" points="112.48,344.23 150.41,322.34 150.41,366.14 	"/>
	<polygon class="st1" points="160.46,383.55 192.37,401.97 160.46,420.4 	"/>
	<polygon class="st1" points="169.67,430.84 196.81,415.17 196.81,446.51 	"/>
	<polygon class="st1" points="215.77,479.35 231.76,488.58 215.77,497.81 	"/>
	<polygon class="st1" points="230.37,517.44 241.46,511.04 241.46,523.84 	"/>
	<polygon class="st1" points="269.9,573.09 273.5,575.17 269.9,577.25 	"/>
	<polygon class="st1" points="287.16,604.04 288.07,603.52 288.07,604.57 	"/>
	<polygon class="st1" points="920.94,84.17 921.38,84.43 920.94,84.69 	"/>
	<polygon class="st1" points="886.09,26.7 888.59,25.26 888.59,28.14 	"/>
	<polygon class="st1" points="869.76,-4.48 873.76,-2.17 869.76,0.14 	"/>
	<polygon class="st1" points="273.02,26.7 295.14,13.93 295.14,39.46 	"/>
	<polygon class="st1" points="263.06,41.64 287.18,55.57 263.06,69.49 	"/>
	<polygon class="st1" points="219.03,113.3 247.13,97.08 247.13,129.52 	"/>
	<polygon class="st1" points="210.95,124.59 241.39,142.17 210.95,159.74 	"/>
	<polygon class="st1" points="164.33,199.9 199.49,179.61 199.49,220.2 	"/>
	<polygon class="st1" points="158.71,207.31 195.88,228.77 158.71,250.23 	"/>
	<polygon class="st1" points="111.97,286.5 150.66,264.16 150.66,308.84 	"/>
	<polygon class="st1" points="108.11,292.87 147.08,315.37 108.11,337.88 	"/>
	<polygon class="st1" points="108.85,351.88 145.61,373.11 108.85,394.33 	"/>
	<polygon class="st1" points="115.24,401.97 149.03,382.47 149.03,421.48 	"/>
	<polygon class="st1" points="162.9,445.5 187.5,459.71 162.9,473.91 	"/>
	<polygon class="st1" points="174.88,488.58 194.21,477.42 194.21,499.73 	"/>
	<polygon class="st1" points="217.72,540.45 227.86,546.31 217.72,552.16 	"/>
	<polygon class="st1" points="233.78,575.17 239.75,571.73 239.75,578.62 	"/>
	<polygon class="st1" points="937.21,55.57 938.03,55.1 938.03,56.04 	"/>
	<polygon class="st1" points="920.55,25.76 922.17,26.7 920.55,27.64 	"/>
	<polygon class="st1" points="264.64,-13.36 284.02,-2.17 264.64,9.02 	"/>
	<polygon class="st1" points="221.54,55.57 245.88,41.51 245.88,69.62 	"/>
	<polygon class="st1" points="212.36,69.3 238.56,84.43 212.36,99.56 	"/>
	<polygon class="st1" points="167.18,142.17 198.06,124.34 198.06,160 	"/>
	<polygon class="st1" points="160,151.82 193.29,171.04 160,190.25 	"/>
	<polygon class="st1" points="112.72,228.77 150.29,207.07 150.29,250.46 	"/>
	<polygon class="st1" points="108.17,235.25 146.96,257.64 108.17,280.02 	"/>
	<polygon class="st1" points="61.78,315.37 100.76,292.87 100.76,337.88 	"/>
	<polygon class="st1" points="58.36,322.18 96.58,344.23 58.36,366.3 	"/>
	<polygon class="st1" points="63.04,373.11 100.13,351.69 100.13,394.52 	"/>
	<polygon class="st1" points="110.79,412.99 141.71,430.84 110.79,448.68 	"/>
	<polygon class="st1" points="120.2,459.71 146.55,444.5 146.55,474.92 	"/>
	<polygon class="st1" points="165.5,507.74 182.3,517.44 165.5,527.14 	"/>
	<polygon class="st1" points="179.26,546.31 192.02,538.93 192.02,553.68 	"/>
	<polygon class="st1" points="219.65,601.53 224,604.04 219.65,606.56 	"/>
	<polygon class="st1" points="987.75,84.43 987.76,84.43 987.76,84.44 	"/>
	<polygon class="st1" points="970.94,55.31 971.39,55.57 970.94,55.82 	"/>
	<polygon class="st1" points="224.98,-2.17 244.16,-13.24 244.16,8.9 	"/>
	<polygon class="st1" points="213.8,14.07 235.68,26.7 213.8,39.33 	"/>
	<polygon class="st1" points="170.53,84.43 196.38,69.51 196.38,99.36 	"/>
	<polygon class="st1" points="161.84,97.26 189.62,113.3 161.84,129.34 	"/>
	<polygon class="st1" points="115.79,171.04 148.75,152 148.75,190.06 	"/>
	<polygon class="st1" points="109.31,179.49 144.67,199.9 109.31,220.32 	"/>
	<polygon class="st1" points="62.1,257.64 100.6,235.41 100.6,279.86 	"/>
	<polygon class="st1" points="58.24,264.22 96.82,286.5 58.24,308.78 	"/>
	<polygon class="st1" points="12.96,344.23 50.17,322.76 50.17,365.72 	"/>
	<polygon class="st1" points="59.72,382.25 93.87,401.97 59.72,421.69 	"/>
	<polygon class="st1" points="67.08,430.84 98.11,412.92 98.11,448.75 	"/>
	<polygon class="st1" points="113.72,475.8 135.85,488.58 113.72,501.35 	"/>
	<polygon class="st1" points="125.66,517.44 143.82,506.96 143.82,527.92 	"/>
	<polygon class="st1" points="167.67,569.23 177.96,575.17 167.67,581.12 	"/>
	<polygon class="st1" points="183.67,604.04 189.82,600.49 189.82,607.59 	"/>
	<polygon class="st1" points="987.21,26.7 988.02,26.23 988.02,27.17 	"/>
	<polygon class="st1" points="173.68,26.7 194.81,14.5 194.81,38.9 	"/>
	<polygon class="st1" points="163.42,42.26 186.46,55.57 163.42,68.87 	"/>
	<polygon class="st1" points="119.83,113.3 146.74,97.76 146.74,128.83 	"/>
	<polygon class="st1" points="111.24,125.1 140.81,142.17 111.24,159.24 	"/>
	<polygon class="st1" points="64.67,199.9 99.31,179.9 99.31,219.9 	"/>
	<polygon class="st1" points="58.91,207.65 95.48,228.77 58.91,249.88 	"/>
	<polygon class="st1" points="12.83,286.5 50.24,264.9 50.24,308.1 	"/>
	<polygon class="st1" points="8.7,293.89 45.91,315.37 8.7,336.85 	"/>
	<polygon class="st1" points="9.5,353.02 44.3,373.11 9.5,393.2 	"/>
	<polygon class="st1" points="15.69,401.97 48.81,382.85 48.81,421.09 	"/>
	<polygon class="st1" points="62.2,444.29 88.9,459.71 62.2,475.12 	"/>
	<polygon class="st1" points="72.83,488.58 95.23,475.64 95.23,501.51 	"/>
	<polygon class="st1" points="116.13,537.7 131.04,546.31 116.13,554.92 	"/>
	<polygon class="st1" points="130.47,575.17 141.41,568.86 141.41,581.49 	"/>
	<polygon class="st1" points="165.2,-12.38 182.9,-2.17 165.2,8.05 	"/>
	<polygon class="st1" points="123.13,55.57 145.08,42.89 145.08,68.24 	"/>
	<polygon class="st1" points="113.22,70.79 136.85,84.43 113.22,98.08 	"/>
	<polygon class="st1" points="68.79,142.17 97.25,125.73 97.25,158.6 	"/>
	<polygon class="st1" points="60.72,153.06 91.85,171.04 60.72,189 	"/>
	<polygon class="st1" points="14.19,228.77 49.56,208.35 49.56,249.19 	"/>
	<polygon class="st1" points="8.99,236.67 45.31,257.64 8.99,278.6 	"/>
	<polygon class="st1" points="11.51,414.23 40.28,430.84 11.51,447.45 	"/>
	<polygon class="st1" points="20.7,459.71 46.3,444.93 46.3,474.49 	"/>
	<polygon class="st1" points="65.02,506.91 83.26,517.44 65.02,527.97 	"/>
	<polygon class="st1" points="77.93,546.31 92.69,537.79 92.69,554.83 	"/>
	<polygon class="st1" points="118.68,599.85 125.94,604.04 118.68,608.23 	"/>
	<polygon class="st1" points="126.74,-2.17 143.28,-11.71 143.28,7.38 	"/>
	<polygon class="st1" points="114.92,15.99 133.47,26.7 114.92,37.41 	"/>
	<polygon class="st1" points="73.09,84.43 95.1,71.72 95.1,97.15 	"/>
	<polygon class="st1" points="63.03,99.31 87.25,113.3 63.03,127.28 	"/>
	<polygon class="st1" points="17.98,171.04 47.66,153.9 47.66,188.17 	"/>
	<polygon class="st1" points="10.38,181.33 42.54,199.9 10.38,218.47 	"/>
	<polygon class="st1" points="14.36,476.9 34.58,488.58 14.36,500.25 	"/>
	<polygon class="st1" points="26.15,517.44 43.57,507.38 43.57,527.5 	"/>
	<polygon class="st1" points="67.47,568.87 78.37,575.17 67.47,581.47 	"/>
	<polygon class="st1" points="82.98,604.04 90.16,599.89 90.16,608.19 	"/>
	<polygon class="st1" points="76.59,26.7 93.35,17.02 93.35,36.37 	"/>
	<polygon class="st1" points="64.93,44.88 83.44,55.57 64.93,66.25 	"/>
	<polygon class="st1" points="22.93,113.3 45.19,100.46 45.19,126.14 	"/>
	<polygon class="st1" points="12.71,127.64 37.87,142.17 12.71,156.69 	"/>
	<polygon class="st1" points="16.81,538.87 29.69,546.31 16.81,553.74 	"/>
	<polygon class="st1" points="31.13,575.17 41.09,569.43 41.09,580.92 	"/>
	<polygon class="st1" points="66.72,-9.75 79.86,-2.17 66.72,5.42 	"/>
	<polygon class="st1" points="26.78,55.57 43.26,46.05 43.26,65.08 	"/>
	<polygon class="st1" points="15.09,74.03 33.12,84.43 15.09,94.84 	"/>
	<polygon class="st1" points="19.2,600.75 24.91,604.04 19.2,607.34 	"/>
	<polygon class="st1" points="30.36,-2.17 41.47,-8.59 41.47,4.25 	"/>
	<polygon class="st1" points="16.9,19.43 29.5,26.7 16.9,33.97 	"/>
</g>
<g>
	<polygon class="st1" points="1829.21,315.29 1829.07,315.37 1829.21,315.45 	"/>
	<polygon class="st1" points="1863,315.37 1862.25,314.94 1862.25,315.81 	"/>
	<polygon class="st1" points="1813.3,286.5 1812.1,285.81 1812.1,287.2 	"/>
	<polygon class="st1" points="1880.13,284.83 1877.23,286.5 1880.13,288.18 	"/>
	<polygon class="st1" points="1912.71,344.23 1912.39,344.05 1912.39,344.42 	"/>
	<polygon class="st1" points="1830.32,255.64 1826.86,257.64 1830.32,259.63 	"/>
	<polygon class="st1" points="1865.52,257.64 1860.99,255.02 1860.99,260.25 	"/>
	<polygon class="st1" points="1915.05,286.5 1911.22,284.29 1911.22,288.72 	"/>
	<polygon class="st1" points="1930,313.92 1927.49,315.37 1930,316.82 	"/>
	<polygon class="st1" points="1779.29,286.29 1778.92,286.5 1779.29,286.71 	"/>
	<polygon class="st1" points="1780.34,226.73 1776.82,228.77 1780.34,230.81 	"/>
	<polygon class="st1" points="1815.91,228.77 1810.79,225.81 1810.79,231.72 	"/>
	<polygon class="st1" points="1881.79,224.23 1873.93,228.77 1881.79,233.3 	"/>
	<polygon class="st1" points="1918.66,228.77 1909.42,223.43 1909.42,234.1 	"/>
	<polygon class="st1" points="1931.51,253.58 1924.48,257.64 1931.51,261.69 	"/>
	<polygon class="st1" points="1965.29,315.37 1961.1,312.95 1961.1,317.79 	"/>
	<polygon class="st1" points="1980.2,342.44 1977.09,344.23 1980.2,346.03 	"/>
	<polygon class="st1" points="1962.82,373.11 1962.34,372.83 1962.34,373.38 	"/>
	<polygon class="st1" points="1763.21,257.64 1762.15,257.03 1762.15,258.25 	"/>
	<polygon class="st1" points="1765.52,199.9 1760.99,197.28 1760.99,202.52 	"/>
	<polygon class="st1" points="1832.01,194.97 1823.48,199.9 1832.01,204.83 	"/>
	<polygon class="st1" points="1869.38,199.9 1859.06,193.95 1859.06,205.86 	"/>
	<polygon class="st1" points="1933.61,192.2 1920.27,199.9 1933.61,207.6 	"/>
	<polygon class="st1" points="1968.22,257.64 1959.64,252.68 1959.64,262.6 	"/>
	<polygon class="st1" points="1981.52,282.43 1974.46,286.5 1981.52,290.57 	"/>
	<polygon class="st1" points="2015.99,344.23 2010.75,341.21 2010.75,347.27 	"/>
	<polygon class="st1" points="1729.18,257.62 1729.15,257.64 1729.18,257.65 	"/>
	<polygon class="st1" points="1781.68,166.69 1774.15,171.04 1781.68,175.38 	"/>
	<polygon class="st1" points="1819.15,171.04 1809.18,165.28 1809.18,176.79 	"/>
	<polygon class="st1" points="1883.8,163.01 1869.91,171.04 1883.8,179.06 	"/>
	<polygon class="st1" points="1922.73,171.04 1907.38,162.18 1907.38,179.89 	"/>
	<polygon class="st1" points="1972.51,199.9 1957.49,191.23 1957.49,208.58 	"/>
	<polygon class="st1" points="1983.39,221.45 1970.71,228.77 1983.39,236.09 	"/>
	<polygon class="st1" points="2018.77,286.5 2009.36,281.07 2009.36,291.94 	"/>
	<polygon class="st1" points="2032.11,310.27 2023.27,315.37 2032.11,320.47 	"/>
	<polygon class="st1" points="2030.72,370.42 2026.06,373.11 2030.72,375.79 	"/>
	<polygon class="st1" points="2013.51,401.97 2011.99,401.09 2011.99,402.85 	"/>
	<polygon class="st1" points="1712.96,228.77 1712.27,228.37 1712.27,229.17 	"/>
	<polygon class="st1" points="1730.08,198.32 1727.34,199.9 1730.08,201.48 	"/>
	<polygon class="st1" points="1731.14,138.75 1725.22,142.17 1731.14,145.59 	"/>
	<polygon class="st1" points="1767.86,142.17 1759.82,137.52 1759.82,146.81 	"/>
	<polygon class="st1" points="1833.57,134.54 1820.36,142.17 1833.57,149.79 	"/>
	<polygon class="st1" points="1872.71,142.17 1857.39,133.33 1857.39,151.01 	"/>
	<polygon class="st1" points="1935.31,131.52 1916.87,142.17 1935.31,152.81 	"/>
	<polygon class="st1" points="1975.65,142.17 1955.92,130.78 1955.92,153.55 	"/>
	<polygon class="st1" points="1985.27,160.46 1966.96,171.04 1985.27,181.61 	"/>
	<polygon class="st1" points="2022.4,228.77 2007.55,220.19 2007.55,237.35 	"/>
	<polygon class="st1" points="2033.63,249.91 2020.24,257.64 2033.63,265.37 	"/>
	<polygon class="st1" points="2070.73,315.37 2058.38,308.24 2058.38,322.5 	"/>
	<polygon class="st1" points="2083.19,337.26 2071.1,344.23 2083.19,351.22 	"/>
	<polygon class="st1" points="2067.84,373.11 2059.83,368.48 2059.83,377.73 	"/>
	<polygon class="st1" points="2029.55,430.18 2028.4,430.84 2029.55,431.5 	"/>
	<polygon class="st1" points="1714.82,171.04 1711.34,169.02 1711.34,173.05 	"/>
	<polygon class="st1" points="1716.69,113.3 1710.41,109.67 1710.41,116.93 	"/>
	<polygon class="st1" points="1782.92,106.81 1771.67,113.3 1782.92,119.79 	"/>
	<polygon class="st1" points="1821.73,113.3 1807.88,105.3 1807.88,121.3 	"/>
	<polygon class="st1" points="1885.19,102.87 1867.12,113.3 1885.19,123.73 	"/>
	<polygon class="st1" points="1925.55,113.3 1905.97,101.99 1905.97,124.61 	"/>
	<polygon class="st1" points="1986.35,100.86 1964.79,113.3 1986.35,125.74 	"/>
	<polygon class="st1" points="2025.76,171.04 2005.87,159.55 2005.87,182.52 	"/>
	<polygon class="st1" points="2035.44,189.02 2016.6,199.9 2035.44,210.78 	"/>
	<polygon class="st1" points="2073.63,257.64 2056.93,248 2056.93,267.27 	"/>
	<polygon class="st1" points="2084.56,277.15 2068.37,286.5 2084.56,295.85 	"/>
	<polygon class="st1" points="2123.49,344.23 2107,334.72 2107,353.76 	"/>
	<polygon class="st1" points="2081.69,397.6 2074.12,401.97 2081.69,406.34 	"/>
	<polygon class="st1" points="2065.05,430.84 2061.22,428.63 2061.22,433.04 	"/>
	<polygon class="st1" points="1679.74,170.05 1678.03,171.04 1679.74,172.02 	"/>
	<polygon class="st1" points="1732.08,79.38 1723.33,84.43 1732.08,89.48 	"/>
	<polygon class="st1" points="1769.95,84.43 1758.78,77.98 1758.78,90.88 	"/>
	<polygon class="st1" points="1834.63,74.97 1818.24,84.43 1834.63,93.9 	"/>
	<polygon class="st1" points="1874.83,84.43 1856.34,73.75 1856.34,95.11 	"/>
	<polygon class="st1" points="1936.24,72.18 1915.02,84.43 1936.24,96.68 	"/>
	<polygon class="st1" points="1977.14,84.43 1955.18,71.76 1955.18,97.11 	"/>
	<polygon class="st1" points="2027.6,113.3 2004.95,100.22 2004.95,126.38 	"/>
	<polygon class="st1" points="2036.58,129.32 2014.33,142.17 2036.58,155.01 	"/>
	<polygon class="st1" points="2076.66,199.9 2055.42,187.63 2055.42,212.17 	"/>
	<polygon class="st1" points="2086.08,216.8 2065.34,228.77 2086.08,240.74 	"/>
	<polygon class="st1" points="2126.11,286.5 2105.69,274.71 2105.69,298.29 	"/>
	<polygon class="st1" points="2136.15,303.26 2115.19,315.37 2136.15,327.48 	"/>
	<polygon class="st1" points="2134.72,363.49 2118.06,373.11 2134.72,382.72 	"/>
	<polygon class="st1" points="2120.22,401.97 2108.64,395.28 2108.64,408.67 	"/>
	<polygon class="st1" points="2080.28,457.77 2076.93,459.71 2080.28,461.64 	"/>
	<polygon class="st1" points="2062.95,488.58 2062.27,488.19 2062.27,488.96 	"/>
	<polygon class="st1" points="1663.92,142.17 1661.79,140.94 1661.79,143.4 	"/>
	<polygon class="st1" points="1680.62,110.79 1676.27,113.3 1680.62,115.81 	"/>
	<polygon class="st1" points="1681.39,51.73 1674.73,55.57 1681.39,59.41 	"/>
	<polygon class="st1" points="1718.43,55.57 1709.54,50.43 1709.54,60.7 	"/>
	<polygon class="st1" points="1783.74,47.64 1770.02,55.57 1783.74,63.49 	"/>
	<polygon class="st1" points="1823.38,55.57 1807.06,46.15 1807.06,64.99 	"/>
	<polygon class="st1" points="1885.81,44.05 1865.87,55.57 1885.81,67.08 	"/>
	<polygon class="st1" points="1926.68,55.57 1905.41,43.28 1905.41,67.85 	"/>
	<polygon class="st1" points="1986.7,42.53 1964.11,55.57 1986.7,68.61 	"/>
	<polygon class="st1" points="2027.82,55.57 2004.84,42.3 2004.84,68.83 	"/>
	<polygon class="st1" points="2036.96,70.93 2013.57,84.43 2036.96,97.94 	"/>
	<polygon class="st1" points="2078.21,142.17 2054.64,128.56 2054.64,155.77 	"/>
	<polygon class="st1" points="2087.04,157.39 2063.41,171.04 2087.04,184.68 	"/>
	<polygon class="st1" points="2128.7,228.77 2104.4,214.74 2104.4,242.8 	"/>
	<polygon class="st1" points="2137.4,243.38 2112.7,257.64 2137.4,271.89 	"/>
	<polygon class="st1" points="2179.35,315.37 2154.07,300.77 2154.07,329.97 	"/>
	<polygon class="st1" points="2187.71,329.43 2162.07,344.23 2187.71,359.04 	"/>
	<polygon class="st1" points="2176.57,373.11 2155.46,360.91 2155.46,385.29 	"/>
	<polygon class="st1" points="2132.86,424.43 2121.77,430.84 2132.86,437.24 	"/>
	<polygon class="st1" points="2116.92,459.71 2110.29,455.87 2110.29,463.54 	"/>
	<polygon class="st1" points="2079.31,517.18 2078.87,517.44 2079.31,517.7 	"/>
	<polygon class="st1" points="1629.44,141.7 1628.63,142.17 1629.44,142.64 	"/>
	<polygon class="st1" points="1665.49,84.43 1661.01,81.85 1661.01,87.02 	"/>
	<polygon class="st1" points="1667.01,26.7 1660.25,22.8 1660.25,30.6 	"/>
	<polygon class="st1" points="1732.91,20.23 1721.7,26.7 1732.91,33.16 	"/>
	<polygon class="st1" points="1771.44,26.7 1758.03,18.96 1758.03,34.44 	"/>
	<polygon class="st1" points="1835.17,16.29 1817.15,26.7 1835.17,37.1 	"/>
	<polygon class="st1" points="1875.74,26.7 1855.88,15.23 1855.88,38.17 	"/>
	<polygon class="st1" points="1936.47,14.05 1914.56,26.7 1936.47,39.34 	"/>
	<polygon class="st1" points="1977.36,26.7 1955.07,13.83 1955.07,39.57 	"/>
	<polygon class="st1" points="2036.73,13.59 2014.03,26.7 2036.73,39.8 	"/>
	<polygon class="st1" points="2078.43,84.43 2054.53,70.64 2054.53,98.23 	"/>
	<polygon class="st1" points="2087.32,99.17 2062.85,113.3 2087.32,127.43 	"/>
	<polygon class="st1" points="2129.72,171.04 2103.88,156.12 2103.88,185.96 	"/>
	<polygon class="st1" points="2138.12,184.39 2111.25,199.9 2138.12,215.42 	"/>
	<polygon class="st1" points="2181.41,257.64 2153.04,241.25 2153.04,274.02 	"/>
	<polygon class="st1" points="2188.78,269.85 2159.93,286.5 2188.78,303.16 	"/>
	<polygon class="st1" points="2232.34,344.23 2202.57,327.05 2202.57,361.42 	"/>
	<polygon class="st1" points="2185.95,390.21 2165.58,401.97 2185.95,413.74 	"/>
	<polygon class="st1" points="2172.61,430.84 2157.44,422.07 2157.44,439.6 	"/>
	<polygon class="st1" points="2131.13,485.17 2125.24,488.58 2131.13,491.97 	"/>
	<polygon class="st1" points="2114.23,517.44 2111.63,515.93 2111.63,518.94 	"/>
	<polygon class="st1" points="1613.41,113.3 1612.05,112.52 1612.05,114.08 	"/>
	<polygon class="st1" points="1630.16,82.72 1627.19,84.43 1630.16,86.15 	"/>
	<polygon class="st1" points="1682.17,-7.36 1673.17,-2.17 1682.17,3.03 	"/>
	<polygon class="st1" points="1719.99,-2.17 1708.76,-8.65 1708.76,4.32 	"/>
	<polygon class="st1" points="1784.33,-11.12 1768.83,-2.17 1784.33,6.78 	"/>
	<polygon class="st1" points="1824.29,-2.17 1806.61,-12.37 1806.61,8.03 	"/>
	<polygon class="st1" points="1885.91,-13.86 1865.67,-2.17 1885.91,9.52 	"/>
	<polygon class="st1" points="1926.58,-2.17 1905.46,-14.36 1905.46,10.02 	"/>
	<polygon class="st1" points="1986.24,-14.42 1965.01,-2.17 1986.24,10.08 	"/>
	<polygon class="st1" points="2026.54,-2.17 2005.48,-14.33 2005.48,9.99 	"/>
	<polygon class="st1" points="2077.44,26.7 2055.03,13.76 2055.03,39.64 	"/>
	<polygon class="st1" points="2086.98,42.02 2063.52,55.57 2086.98,69.11 	"/>
	<polygon class="st1" points="2129.47,113.3 2104.01,98.6 2104.01,127.99 	"/>
	<polygon class="st1" points="2138.03,126.82 2111.44,142.17 2138.03,157.52 	"/>
	<polygon class="st1" points="2182.31,199.9 2152.59,182.74 2152.59,217.07 	"/>
	<polygon class="st1" points="2189.48,210.9 2158.52,228.77 2189.48,246.64 	"/>
	<polygon class="st1" points="2234.01,286.5 2201.74,267.87 2201.74,305.14 	"/>
	<polygon class="st1" points="2240.23,296.21 2207.03,315.37 2240.23,334.54 	"/>
	<polygon class="st1" points="2239.03,356.01 2209.43,373.11 2239.03,390.2 	"/>
	<polygon class="st1" points="2228.88,401.97 2204.3,387.78 2204.3,416.16 	"/>
	<polygon class="st1" points="2183.77,451.72 2169.94,459.71 2183.77,467.69 	"/>
	<polygon class="st1" points="2168.49,488.58 2159.5,483.38 2159.5,493.76 	"/>
	<polygon class="st1" points="2129.95,544.94 2127.59,546.31 2129.95,547.67 	"/>
	<polygon class="st1" points="2112.5,575.17 2112.5,575.17 2112.5,575.18 	"/>
	<polygon class="st1" points="1579.32,113.05 1578.87,113.3 1579.32,113.56 	"/>
	<polygon class="st1" points="1614.72,55.57 1611.4,53.65 1611.4,57.48 	"/>
	<polygon class="st1" points="1630.87,23.76 1625.78,26.7 1630.87,29.64 	"/>
	<polygon class="st1" points="2085.92,-13.87 2065.66,-2.17 2085.92,9.53 	"/>
	<polygon class="st1" points="2128.34,55.57 2104.58,41.84 2104.58,69.29 	"/>
	<polygon class="st1" points="2137.49,70.01 2112.51,84.43 2137.49,98.86 	"/>
	<polygon class="st1" points="2181.28,142.17 2153.1,125.9 2153.1,158.43 	"/>
	<polygon class="st1" points="2189.2,153.64 2159.08,171.04 2189.2,188.42 	"/>
	<polygon class="st1" points="2234.92,228.77 2201.28,209.35 2201.28,248.19 	"/>
	<polygon class="st1" points="2240.81,237.46 2205.86,257.64 2240.81,277.82 	"/>
	<polygon class="st1" points="2286.49,315.37 2250.49,294.59 2250.49,336.15 	"/>
	<polygon class="st1" points="2291.25,323.29 2254.98,344.23 2291.25,365.18 	"/>
	<polygon class="st1" points="2284.7,373.11 2251.39,353.87 2251.39,392.34 	"/>
	<polygon class="st1" points="2236.98,417.29 2213.51,430.84 2236.98,444.39 	"/>
	<polygon class="st1" points="2224.29,459.71 2206.6,449.49 2206.6,469.92 	"/>
	<polygon class="st1" points="2181.82,512.84 2173.85,517.44 2181.82,522.04 	"/>
	<polygon class="st1" points="2165.57,546.31 2160.96,543.64 2160.96,548.97 	"/>
	<polygon class="st1" points="1563.11,84.43 1562.2,83.91 1562.2,84.96 	"/>
	<polygon class="st1" points="1579.86,54.36 1577.78,55.57 1579.86,56.77 	"/>
	<polygon class="st1" points="1616.17,-2.17 1610.67,-5.35 1610.67,1 	"/>
	<polygon class="st1" points="2125.69,-2.17 2105.9,-13.59 2105.9,9.25 	"/>
	<polygon class="st1" points="2136.57,13.86 2114.34,26.7 2136.57,39.54 	"/>
	<polygon class="st1" points="2179.49,84.43 2154,69.72 2154,99.15 	"/>
	<polygon class="st1" points="2188.27,97.51 2160.93,113.3 2188.27,129.09 	"/>
	<polygon class="st1" points="2233.69,171.04 2201.9,152.68 2201.9,189.39 	"/>
	<polygon class="st1" points="2240.49,180.27 2206.5,199.9 2240.49,219.53 	"/>
	<polygon class="st1" points="2287.27,257.64 2250.11,236.18 2250.11,279.09 	"/>
	<polygon class="st1" points="2291.68,264.82 2254.12,286.5 2291.68,308.19 	"/>
	<polygon class="st1" points="2289.8,383.55 2257.89,401.97 2289.8,420.4 	"/>
	<polygon class="st1" points="2280.59,430.84 2253.45,415.17 2253.45,446.51 	"/>
	<polygon class="st1" points="2234.49,479.35 2218.5,488.58 2234.49,497.81 	"/>
	<polygon class="st1" points="2219.89,517.44 2208.8,511.04 2208.8,523.84 	"/>
	<polygon class="st1" points="2180.36,573.09 2176.76,575.17 2180.36,577.25 	"/>
	<polygon class="st1" points="2163.1,604.04 2162.19,603.52 2162.19,604.57 	"/>
	<polygon class="st1" points="1529.32,84.17 1528.88,84.43 1529.32,84.69 	"/>
	<polygon class="st1" points="1564.17,26.7 1561.67,25.26 1561.67,28.14 	"/>
	<polygon class="st1" points="1580.5,-4.48 1576.5,-2.17 1580.5,0.14 	"/>
	<polygon class="st1" points="2177.24,26.7 2155.12,13.93 2155.12,39.46 	"/>
	<polygon class="st1" points="2187.2,41.64 2163.08,55.57 2187.2,69.49 	"/>
	<polygon class="st1" points="2231.23,113.3 2203.13,97.08 2203.13,129.52 	"/>
	<polygon class="st1" points="2239.31,124.59 2208.87,142.17 2239.31,159.74 	"/>
	<polygon class="st1" points="2285.93,199.9 2250.77,179.61 2250.77,220.2 	"/>
	<polygon class="st1" points="2291.55,207.31 2254.38,228.77 2291.55,250.23 	"/>
	<polygon class="st1" points="2287.36,445.5 2262.76,459.71 2287.36,473.91 	"/>
	<polygon class="st1" points="2275.38,488.58 2256.05,477.42 2256.05,499.73 	"/>
	<polygon class="st1" points="2232.54,540.45 2222.4,546.31 2232.54,552.16 	"/>
	<polygon class="st1" points="2216.48,575.17 2210.51,571.73 2210.51,578.62 	"/>
	<polygon class="st1" points="1513.05,55.57 1512.23,55.1 1512.23,56.04 	"/>
	<polygon class="st1" points="1529.71,25.76 1528.09,26.7 1529.71,27.64 	"/>
	<polygon class="st1" points="2185.62,-13.36 2166.24,-2.17 2185.62,9.02 	"/>
	<polygon class="st1" points="2228.72,55.57 2204.38,41.51 2204.38,69.62 	"/>
	<polygon class="st1" points="2237.9,69.3 2211.7,84.43 2237.9,99.56 	"/>
	<polygon class="st1" points="2283.08,142.17 2252.2,124.34 2252.2,160 	"/>
	<polygon class="st1" points="2290.26,151.82 2256.97,171.04 2290.26,190.25 	"/>
	<polygon class="st1" points="2284.76,507.74 2267.96,517.44 2284.76,527.14 	"/>
	<polygon class="st1" points="2271,546.31 2258.24,538.93 2258.24,553.68 	"/>
	<polygon class="st1" points="2230.61,601.53 2226.26,604.04 2230.61,606.56 	"/>
	<polygon class="st1" points="1462.51,84.43 1462.5,84.43 1462.5,84.44 	"/>
	<polygon class="st1" points="1479.32,55.31 1478.87,55.57 1479.32,55.82 	"/>
	<polygon class="st1" points="2225.28,-2.17 2206.1,-13.24 2206.1,8.9 	"/>
	<polygon class="st1" points="2236.46,14.07 2214.57,26.7 2236.46,39.33 	"/>
	<polygon class="st1" points="2279.73,84.43 2253.88,69.51 2253.88,99.36 	"/>
	<polygon class="st1" points="2288.42,97.26 2260.64,113.3 2288.42,129.34 	"/>
	<polygon class="st1" points="2282.59,569.23 2272.29,575.17 2282.59,581.12 	"/>
	<polygon class="st1" points="2266.59,604.04 2260.44,600.49 2260.44,607.59 	"/>
	<polygon class="st1" points="1463.05,26.7 1462.24,26.23 1462.24,27.17 	"/>
	<polygon class="st1" points="2276.58,26.7 2255.45,14.5 2255.45,38.9 	"/>
	<polygon class="st1" points="2286.84,42.26 2263.8,55.57 2286.84,68.87 	"/>
	<polygon class="st1" points="2285.06,-12.38 2267.36,-2.17 2285.06,8.05 	"/>
</g>
</svg>
