<?xml version="1.0" encoding="utf-8"?>
<!-- Generator: Adobe Illustrator 23.0.5, SVG Export Plug-In . SVG Version: 6.00 Build 0)  -->
<svg version="1.1" id="Layer_1" xmlns="http://www.w3.org/2000/svg" xmlns:xlink="http://www.w3.org/1999/xlink" x="0px" y="0px"
	 viewBox="0 0 1400 434.28" style="enable-background:new 0 0 1400 434.28;" xml:space="preserve">
<style type="text/css">
	.st0{fill:#FFFFFF;}
	.st1{fill:#18557C;}
	.st2{fill:#7ABD43;}
</style>
<rect x="-11.17" y="-8.96" class="st0" width="1411.17" height="453.45"/>
<path class="st1" d="M259.39,151.06c-15.69-14.96-39.41-22.62-59.84-22.62c-48.53,0-80.27,27.73-80.27,83.55
	c0,36.49,20.07,82.1,80.27,82.1c17.88,0,34.66-2.92,54.37-17.88v-40.87h-60.93v-47.43h110.19V299.2
	c-21.89,31.38-56.92,47.43-103.99,47.43c-98.51,0-135.73-68.23-135.73-134.64c0-71.88,42.32-135.73,136.1-135.73
	c34.66,0,66.04,9.49,95.23,39.41L259.39,151.06z"/>
<path class="st1" d="M331.99,249.57c0-54.37,38.68-94.5,98.51-94.5c60.2,0,98.88,40.14,98.88,94.5c0,54.37-37.58,93.77-98.88,93.77
	C369.58,343.35,331.99,303.94,331.99,249.57z M476.12,249.57c0-22.62-13.87-47.43-45.61-47.43c-31.38,0-45.24,24.81-45.24,47.43
	c0,22.62,13.5,47.07,45.24,47.07C462.62,296.64,476.12,273.29,476.12,249.57z"/>
<path class="st1" d="M817.63,338.97h-46.7L716.2,196.3l-52.91,142.66h-46.7L521.36,83.92h63.85l31.74,87.2l22.99,82.46l57.28-169.66
	h37.22l59.84,169.66l21.89-82.1l30.28-87.57h63.85L817.63,338.97z"/>
<path class="st0" d="M1042.39,228.05c-1.09-19.7-21.16-28.82-43.05-28.82c-21.16,0-37.22,10.95-42.32,28.82H1042.39z"/>
<path class="st1" d="M1177.38,84.29v255.04h-52.18V84.29H1177.38z"/>
<path class="st1" d="M1275.53,84.29v255.04h-52.18V84.29H1275.53z"/>
<path class="st1" d="M1091.22,248.63c0-51.65-41.87-93.52-93.52-93.52s-93.52,41.87-93.52,93.52c0,6.06,0.58,11.99,1.69,17.73
	h183.67C1090.63,260.62,1091.22,254.69,1091.22,248.63z"/>
<path class="st0" d="M1033,226.55c0-15.09-15.81-27.33-35.31-27.33c-19.5,0-35.31,12.24-35.31,27.33c0,1.77,0.22,3.5,0.64,5.18
	h69.34C1032.78,230.06,1033,228.32,1033,226.55z"/>
<path class="st2" d="M997.7,342.15c30.81,0,58.12-14.91,75.15-37.89H922.54C939.58,327.24,966.89,342.15,997.7,342.15z"/>
</svg>
