<svg id="Layer_1" data-name="Layer 1" xmlns="http://www.w3.org/2000/svg" viewBox="0 0 2299 1000"><defs><style>.cls-1{fill:#18557c;}.cls-2{fill:#fff;}</style></defs><title>login-bg</title><rect class="cls-1" width="2299" height="1000"/><polygon class="cls-2" points="1001.44 247.07 1001.45 247.06 1001.45 247.07 1001.44 247.07"/><polygon class="cls-2" points="984.63 217.94 985.07 218.2 984.63 218.45 984.63 217.94"/><polygon class="cls-2" points="1001 189.33 1001.67 188.94 1001.67 189.72 1001 189.33"/><polygon class="cls-2" points="984.4 159.8 985.54 160.46 984.4 161.12 984.4 159.8"/><polygon class="cls-2" points="1034.7 189.2 1034.92 189.33 1034.7 189.46 1034.7 189.2"/><polygon class="cls-2" points="1000.68 131.6 1001.83 130.94 1001.83 132.26 1000.68 131.6"/><polygon class="cls-2" points="984.24 101.79 985.86 102.73 984.24 103.67 984.24 101.79"/><polygon class="cls-2" points="1051.21 160.46 1051.56 160.26 1051.56 160.67 1051.21 160.46"/><polygon class="cls-2" points="1034.55 131.21 1035.23 131.6 1034.55 131.99 1034.55 131.21"/><polygon class="cls-2" points="1000.52 73.86 1001.9 73.06 1001.9 74.66 1000.52 73.86"/><polygon class="cls-2" points="984.18 43.96 985.97 45 984.18 46.03 984.18 43.96"/><polygon class="cls-2" points="1084.77 160.46 1084.78 160.46 1084.77 160.47 1084.77 160.46"/><polygon class="cls-2" points="1051.15 102.73 1051.59 102.48 1051.59 102.98 1051.15 102.73"/><polygon class="cls-2" points="1034.55 73.47 1035.23 73.86 1034.55 74.25 1034.55 73.47"/><polygon class="cls-2" points="1000.52 16.13 1001.9 15.33 1001.9 16.93 1000.52 16.13"/><polygon class="cls-2" points="1101.44 131.6 1101.44 131.59 1101.44 131.6 1101.44 131.6"/><polygon class="cls-2" points="1084.77 102.72 1084.78 102.73 1084.77 102.73 1084.77 102.72"/><polygon class="cls-2" points="1051.3 45 1051.52 44.87 1051.52 45.12 1051.3 45"/><polygon class="cls-2" points="1034.63 15.87 1035.07 16.13 1034.63 16.39 1034.63 15.87"/><polygon class="cls-2" points="749.05 506.79 749.19 506.87 749.05 506.95 749.05 506.79"/><polygon class="cls-2" points="715.26 506.87 716.01 506.44 716.01 507.31 715.26 506.87"/><polygon class="cls-2" points="764.96 478 766.16 477.31 766.16 478.7 764.96 478"/><polygon class="cls-2" points="698.13 476.32 701.03 478 698.13 479.68 698.13 476.32"/><polygon class="cls-2" points="665.55 535.74 665.87 535.55 665.87 535.92 665.55 535.74"/><polygon class="cls-2" points="747.94 447.14 751.4 449.13 747.94 451.13 747.94 447.14"/><polygon class="cls-2" points="712.74 449.13 717.27 446.52 717.27 451.75 712.74 449.13"/><polygon class="cls-2" points="663.21 478 667.04 475.79 667.04 480.22 663.21 478"/><polygon class="cls-2" points="648.26 505.42 650.77 506.87 648.26 508.32 648.26 505.42"/><polygon class="cls-2" points="798.97 477.79 799.34 478 798.97 478.21 798.97 477.79"/><polygon class="cls-2" points="797.92 418.23 801.45 420.27 797.92 422.31 797.92 418.23"/><polygon class="cls-2" points="762.35 420.27 767.47 417.31 767.47 423.22 762.35 420.27"/><polygon class="cls-2" points="696.48 415.73 704.33 420.27 696.48 424.8 696.48 415.73"/><polygon class="cls-2" points="659.6 420.27 668.84 414.93 668.84 425.6 659.6 420.27"/><polygon class="cls-2" points="646.75 445.08 653.78 449.13 646.75 453.19 646.75 445.08"/><polygon class="cls-2" points="612.97 506.87 617.16 504.45 617.16 509.29 612.97 506.87"/><polygon class="cls-2" points="598.06 533.94 601.17 535.74 598.06 537.53 598.06 533.94"/><polygon class="cls-2" points="615.44 564.61 615.92 564.33 615.92 564.88 615.44 564.61"/><polygon class="cls-2" points="815.05 449.13 816.11 448.52 816.11 449.75 815.05 449.13"/><polygon class="cls-2" points="812.74 391.4 817.27 388.78 817.27 394.02 812.74 391.4"/><polygon class="cls-2" points="746.25 386.47 754.78 391.4 746.25 396.33 746.25 386.47"/><polygon class="cls-2" points="708.89 391.4 719.2 385.45 719.2 397.36 708.89 391.4"/><polygon class="cls-2" points="644.65 383.7 657.99 391.4 644.65 399.1 644.65 383.7"/><polygon class="cls-2" points="610.04 449.13 618.63 444.18 618.63 454.1 610.04 449.13"/><polygon class="cls-2" points="596.74 473.93 603.8 478 596.74 482.07 596.74 473.93"/><polygon class="cls-2" points="562.27 535.74 567.51 532.71 567.51 538.77 562.27 535.74"/><polygon class="cls-2" points="849.09 449.12 849.11 449.13 849.09 449.15 849.09 449.12"/><polygon class="cls-2" points="796.59 358.19 804.11 362.54 796.59 366.88 796.59 358.19"/><polygon class="cls-2" points="759.11 362.54 769.08 356.78 769.08 368.29 759.11 362.54"/><polygon class="cls-2" points="694.47 354.51 708.36 362.54 694.47 370.56 694.47 354.51"/><polygon class="cls-2" points="655.53 362.54 670.88 353.68 670.88 371.39 655.53 362.54"/><polygon class="cls-2" points="605.75 391.4 620.77 382.73 620.77 400.08 605.75 391.4"/><polygon class="cls-2" points="594.87 412.95 607.55 420.27 594.87 427.58 594.87 412.95"/><polygon class="cls-2" points="559.49 478 568.9 472.57 568.9 483.44 559.49 478"/><polygon class="cls-2" points="546.15 501.77 554.99 506.87 546.15 511.97 546.15 501.77"/><polygon class="cls-2" points="547.55 561.92 552.2 564.61 547.55 567.29 547.55 561.92"/><polygon class="cls-2" points="564.75 593.47 566.27 592.59 566.27 594.35 564.75 593.47"/><polygon class="cls-2" points="865.3 420.27 865.99 419.87 865.99 420.67 865.3 420.27"/><polygon class="cls-2" points="848.18 389.82 850.92 391.4 848.18 392.98 848.18 389.82"/><polygon class="cls-2" points="847.12 330.25 853.04 333.67 847.12 337.09 847.12 330.25"/><polygon class="cls-2" points="810.4 333.67 818.44 329.02 818.44 338.31 810.4 333.67"/><polygon class="cls-2" points="744.69 326.05 757.9 333.67 744.69 341.29 744.69 326.05"/><polygon class="cls-2" points="705.55 333.67 720.87 324.82 720.87 342.51 705.55 333.67"/><polygon class="cls-2" points="642.95 323.02 661.39 333.67 642.95 344.31 642.95 323.02"/><polygon class="cls-2" points="602.62 333.67 622.34 322.28 622.34 345.05 602.62 333.67"/><polygon class="cls-2" points="592.99 351.96 611.3 362.54 592.99 373.11 592.99 351.96"/><polygon class="cls-2" points="555.87 420.27 570.71 411.69 570.71 428.85 555.87 420.27"/><polygon class="cls-2" points="544.63 441.41 558.02 449.13 544.63 456.87 544.63 441.41"/><polygon class="cls-2" points="507.53 506.87 519.88 499.74 519.88 514 507.53 506.87"/><polygon class="cls-2" points="495.07 528.76 507.16 535.74 495.07 542.72 495.07 528.76"/><polygon class="cls-2" points="510.42 564.61 518.43 559.98 518.43 569.23 510.42 564.61"/><polygon class="cls-2" points="548.72 621.68 549.86 622.34 548.72 623 548.72 621.68"/><polygon class="cls-2" points="863.44 362.54 866.92 360.52 866.92 364.55 863.44 362.54"/><polygon class="cls-2" points="861.57 304.8 867.86 301.17 867.86 308.43 861.57 304.8"/><polygon class="cls-2" points="795.35 298.31 806.59 304.8 795.35 311.29 795.35 298.31"/><polygon class="cls-2" points="756.53 304.8 770.38 296.8 770.38 312.8 756.53 304.8"/><polygon class="cls-2" points="693.07 294.37 711.14 304.8 693.07 315.23 693.07 294.37"/><polygon class="cls-2" points="652.71 304.8 672.29 293.5 672.29 316.11 652.71 304.8"/><polygon class="cls-2" points="591.91 292.36 613.47 304.8 591.91 317.24 591.91 292.36"/><polygon class="cls-2" points="552.5 362.54 572.39 351.05 572.39 374.02 552.5 362.54"/><polygon class="cls-2" points="542.82 380.52 561.66 391.4 542.82 402.28 542.82 380.52"/><polygon class="cls-2" points="504.64 449.13 521.33 439.5 521.33 458.77 504.64 449.13"/><polygon class="cls-2" points="493.7 468.65 509.89 478 493.7 487.35 493.7 468.65"/><polygon class="cls-2" points="454.77 535.74 471.26 526.22 471.26 545.26 454.77 535.74"/><polygon class="cls-2" points="496.57 589.1 504.14 593.47 496.57 597.84 496.57 589.1"/><polygon class="cls-2" points="513.21 622.34 517.04 620.13 517.04 624.54 513.21 622.34"/><polygon class="cls-2" points="898.52 361.55 900.23 362.54 898.52 363.52 898.52 361.55"/><polygon class="cls-2" points="846.18 270.88 854.93 275.93 846.18 280.98 846.18 270.88"/><polygon class="cls-2" points="808.31 275.93 819.48 269.49 819.48 282.38 808.31 275.93"/><polygon class="cls-2" points="743.63 266.47 760.03 275.93 743.63 285.4 743.63 266.47"/><polygon class="cls-2" points="703.43 275.93 721.93 265.25 721.93 286.61 703.43 275.93"/><polygon class="cls-2" points="642.02 263.68 663.24 275.93 642.02 288.18 642.02 263.68"/><polygon class="cls-2" points="601.13 275.93 623.08 263.26 623.08 288.61 601.13 275.93"/><polygon class="cls-2" points="550.66 304.8 573.31 291.73 573.31 317.88 550.66 304.8"/><polygon class="cls-2" points="541.68 320.82 563.93 333.67 541.68 346.51 541.68 320.82"/><polygon class="cls-2" points="501.6 391.4 522.85 379.13 522.85 403.67 501.6 391.4"/><polygon class="cls-2" points="492.18 408.3 512.92 420.27 492.18 432.24 492.18 408.3"/><polygon class="cls-2" points="452.15 478 472.57 466.21 472.57 489.79 452.15 478"/><polygon class="cls-2" points="442.11 494.76 463.08 506.87 442.11 518.98 442.11 494.76"/><polygon class="cls-2" points="443.55 554.99 460.2 564.61 443.55 574.22 443.55 554.99"/><polygon class="cls-2" points="458.04 593.47 469.63 586.78 469.63 600.16 458.04 593.47"/><polygon class="cls-2" points="497.98 649.27 501.33 651.21 497.98 653.14 497.98 649.27"/><polygon class="cls-2" points="515.31 680.08 515.99 679.69 515.99 680.46 515.31 680.08"/><polygon class="cls-2" points="914.34 333.67 916.47 332.44 916.47 334.9 914.34 333.67"/><polygon class="cls-2" points="897.64 302.29 901.99 304.8 897.64 307.31 897.64 302.29"/><polygon class="cls-2" points="896.87 243.23 903.53 247.07 896.87 250.91 896.87 243.23"/><polygon class="cls-2" points="859.84 247.07 868.72 241.94 868.72 252.2 859.84 247.07"/><polygon class="cls-2" points="794.52 239.14 808.24 247.07 794.52 254.99 794.52 239.14"/><polygon class="cls-2" points="754.88 247.07 771.2 237.65 771.2 256.49 754.88 247.07"/><polygon class="cls-2" points="692.45 235.55 712.39 247.07 692.45 258.58 692.45 235.55"/><polygon class="cls-2" points="651.58 247.07 672.85 234.78 672.85 259.35 651.58 247.07"/><polygon class="cls-2" points="591.57 234.03 614.15 247.07 591.57 260.11 591.57 234.03"/><polygon class="cls-2" points="550.45 247.07 573.42 233.8 573.42 260.33 550.45 247.07"/><polygon class="cls-2" points="541.3 262.43 564.69 275.93 541.3 289.44 541.3 262.43"/><polygon class="cls-2" points="500.05 333.67 523.62 320.06 523.62 347.27 500.05 333.67"/><polygon class="cls-2" points="491.22 348.89 514.85 362.54 491.22 376.18 491.22 348.89"/><polygon class="cls-2" points="449.56 420.27 473.87 406.24 473.87 434.3 449.56 420.27"/><polygon class="cls-2" points="440.87 434.88 465.56 449.13 440.87 463.39 440.87 434.88"/><polygon class="cls-2" points="398.91 506.87 424.19 492.27 424.19 521.47 398.91 506.87"/><polygon class="cls-2" points="390.55 520.93 416.19 535.74 390.55 550.54 390.55 520.93"/><polygon class="cls-2" points="401.69 564.61 422.8 552.41 422.8 576.79 401.69 564.61"/><polygon class="cls-2" points="445.4 615.93 456.49 622.34 445.4 628.74 445.4 615.93"/><polygon class="cls-2" points="461.34 651.21 467.98 647.37 467.98 655.04 461.34 651.21"/><polygon class="cls-2" points="498.95 708.68 499.39 708.94 498.95 709.2 498.95 708.68"/><polygon class="cls-2" points="948.82 333.2 949.63 333.67 948.82 334.13 948.82 333.2"/><polygon class="cls-2" points="912.78 275.93 917.25 273.35 917.25 278.52 912.78 275.93"/><polygon class="cls-2" points="911.25 218.2 918.01 214.3 918.01 222.1 911.25 218.2"/><polygon class="cls-2" points="845.36 211.73 856.56 218.2 845.36 224.66 845.36 211.73"/><polygon class="cls-2" points="806.82 218.2 820.23 210.46 820.23 225.94 806.82 218.2"/><polygon class="cls-2" points="743.09 207.79 761.11 218.2 743.09 228.6 743.09 207.79"/><polygon class="cls-2" points="702.52 218.2 722.38 206.73 722.38 229.66 702.52 218.2"/><polygon class="cls-2" points="641.8 205.55 663.7 218.2 641.8 230.84 641.8 205.55"/><polygon class="cls-2" points="600.91 218.2 623.19 205.33 623.19 231.07 600.91 218.2"/><polygon class="cls-2" points="541.53 205.09 564.23 218.2 541.53 231.3 541.53 205.09"/><polygon class="cls-2" points="499.83 275.93 523.73 262.14 523.73 289.73 499.83 275.93"/><polygon class="cls-2" points="490.94 290.67 515.42 304.8 490.94 318.93 490.94 290.67"/><polygon class="cls-2" points="448.54 362.54 474.38 347.62 474.38 377.46 448.54 362.54"/><polygon class="cls-2" points="440.14 375.89 467.01 391.4 440.14 406.92 440.14 375.89"/><polygon class="cls-2" points="396.85 449.13 425.22 432.75 425.22 465.52 396.85 449.13"/><polygon class="cls-2" points="389.48 461.35 418.33 478 389.48 494.66 389.48 461.35"/><polygon class="cls-2" points="345.92 535.74 375.69 518.55 375.69 552.92 345.92 535.74"/><polygon class="cls-2" points="392.31 581.71 412.69 593.47 392.31 605.24 392.31 581.71"/><polygon class="cls-2" points="405.65 622.34 420.83 613.57 420.83 631.1 405.65 622.34"/><polygon class="cls-2" points="447.14 676.67 453.03 680.08 447.14 683.48 447.14 676.67"/><polygon class="cls-2" points="464.03 708.94 466.63 707.43 466.63 710.44 464.03 708.94"/><polygon class="cls-2" points="964.86 304.8 966.21 304.02 966.21 305.58 964.86 304.8"/><polygon class="cls-2" points="948.1 274.22 951.07 275.93 948.1 277.65 948.1 274.22"/><polygon class="cls-2" points="896.1 184.14 905.09 189.33 896.1 194.53 896.1 184.14"/><polygon class="cls-2" points="858.27 189.33 869.5 182.85 869.5 195.81 858.27 189.33"/><polygon class="cls-2" points="793.93 180.38 809.43 189.33 793.93 198.28 793.93 180.38"/><polygon class="cls-2" points="753.98 189.33 771.65 179.13 771.65 199.53 753.98 189.33"/><polygon class="cls-2" points="692.35 177.64 712.6 189.33 692.35 201.02 692.35 177.64"/><polygon class="cls-2" points="651.69 189.33 672.8 177.14 672.8 201.52 651.69 189.33"/><polygon class="cls-2" points="592.02 177.08 613.25 189.33 592.02 201.58 592.02 177.08"/><polygon class="cls-2" points="551.72 189.33 572.78 177.17 572.78 201.49 551.72 189.33"/><polygon class="cls-2" points="500.82 218.2 523.24 205.26 523.24 231.14 500.82 218.2"/><polygon class="cls-2" points="491.28 233.52 514.74 247.07 491.28 260.61 491.28 233.52"/><polygon class="cls-2" points="448.8 304.8 474.25 290.1 474.25 319.5 448.8 304.8"/><polygon class="cls-2" points="440.24 318.32 466.82 333.67 440.24 349.02 440.24 318.32"/><polygon class="cls-2" points="395.95 391.4 425.68 374.24 425.68 408.57 395.95 391.4"/><polygon class="cls-2" points="388.78 402.4 419.74 420.27 388.78 438.14 388.78 402.4"/><polygon class="cls-2" points="344.25 478 376.52 459.37 376.52 496.64 344.25 478"/><polygon class="cls-2" points="338.03 487.71 371.23 506.87 338.03 526.03 338.03 487.71"/><polygon class="cls-2" points="339.23 547.51 368.83 564.61 339.23 581.7 339.23 547.51"/><polygon class="cls-2" points="349.38 593.47 373.96 579.28 373.96 607.66 349.38 593.47"/><polygon class="cls-2" points="394.49 643.22 408.32 651.21 394.49 659.19 394.49 643.22"/><polygon class="cls-2" points="409.78 680.08 418.76 674.88 418.76 685.26 409.78 680.08"/><polygon class="cls-2" points="448.31 736.45 450.67 737.81 448.31 739.17 448.31 736.45"/><polygon class="cls-2" points="465.76 766.67 465.76 766.67 465.76 766.68 465.76 766.67"/><polygon class="cls-2" points="998.94 304.55 999.39 304.8 998.94 305.06 998.94 304.55"/><polygon class="cls-2" points="963.54 247.07 966.86 245.15 966.86 248.98 963.54 247.07"/><polygon class="cls-2" points="947.4 215.26 952.49 218.2 947.4 221.14 947.4 215.26"/><polygon class="cls-2" points="946.74 156.39 953.79 160.46 946.74 164.53 946.74 156.39"/><polygon class="cls-2" points="909.86 160.46 918.71 155.36 918.71 165.57 909.86 160.46"/><polygon class="cls-2" points="844.82 153.06 857.65 160.46 844.82 167.87 844.82 153.06"/><polygon class="cls-2" points="806 160.46 820.64 152.01 820.64 168.92 806 160.46"/><polygon class="cls-2" points="743.11 150.1 761.06 160.46 743.11 170.83 743.11 150.1"/><polygon class="cls-2" points="703.15 160.46 722.07 149.54 722.07 171.39 703.15 160.46"/><polygon class="cls-2" points="642.57 149.15 662.16 160.46 642.57 171.78 642.57 149.15"/><polygon class="cls-2" points="602.86 160.46 622.22 149.29 622.22 171.64 602.86 160.46"/><polygon class="cls-2" points="542.87 149.68 561.55 160.46 542.87 171.25 542.87 149.68"/><polygon class="cls-2" points="503.76 160.46 521.77 150.07 521.77 170.86 503.76 160.46"/><polygon class="cls-2" points="492.35 177.63 512.6 189.33 492.35 201.03 492.35 177.63"/><polygon class="cls-2" points="449.92 247.07 473.69 233.34 473.69 260.79 449.92 247.07"/><polygon class="cls-2" points="440.77 261.51 465.75 275.93 440.77 290.36 440.77 261.51"/><polygon class="cls-2" points="396.99 333.67 425.16 317.4 425.16 349.93 396.99 333.67"/><polygon class="cls-2" points="389.06 345.14 419.18 362.54 389.06 379.92 389.06 345.14"/><polygon class="cls-2" points="343.34 420.27 376.98 400.85 376.98 439.69 343.34 420.27"/><polygon class="cls-2" points="337.45 428.96 372.4 449.13 337.45 469.32 337.45 428.96"/><polygon class="cls-2" points="291.77 506.87 327.77 486.09 327.77 527.65 291.77 506.87"/><polygon class="cls-2" points="287.01 514.79 323.28 535.74 287.01 556.68 287.01 514.79"/><polygon class="cls-2" points="293.56 564.61 326.87 545.37 326.87 583.84 293.56 564.61"/><polygon class="cls-2" points="341.28 608.79 364.75 622.34 341.28 635.89 341.28 608.79"/><polygon class="cls-2" points="353.97 651.21 371.66 640.99 371.66 661.42 353.97 651.21"/><polygon class="cls-2" points="396.44 704.34 404.41 708.94 396.44 713.54 396.44 704.34"/><polygon class="cls-2" points="412.69 737.81 417.3 735.14 417.3 740.47 412.69 737.81"/><polygon class="cls-2" points="1015.15 275.93 1016.06 275.41 1016.06 276.46 1015.15 275.93"/><polygon class="cls-2" points="998.4 245.86 1000.48 247.07 998.4 248.27 998.4 245.86"/><polygon class="cls-2" points="962.09 189.33 967.59 186.15 967.59 192.5 962.09 189.33"/><polygon class="cls-2" points="961.16 131.6 968.06 127.62 968.06 135.58 961.16 131.6"/><polygon class="cls-2" points="895.72 125.75 905.85 131.6 895.72 137.45 895.72 125.75"/><polygon class="cls-2" points="857.85 131.6 869.72 124.74 869.72 138.46 857.85 131.6"/><polygon class="cls-2" points="794.15 123.03 808.98 131.6 794.15 140.16 794.15 123.03"/><polygon class="cls-2" points="755.07 131.6 771.11 122.34 771.11 140.86 755.07 131.6"/><polygon class="cls-2" points="693.44 121.8 710.41 131.6 693.44 141.4 693.44 121.8"/><polygon class="cls-2" points="654.24 131.6 671.53 121.61 671.53 141.58 654.24 131.6"/><polygon class="cls-2" points="593.62 122.11 610.05 131.6 593.62 141.08 593.62 122.11"/><polygon class="cls-2" points="554.99 131.6 571.15 122.27 571.15 140.93 554.99 131.6"/><polygon class="cls-2" points="494.16 123.03 508.98 131.6 494.16 140.16 494.16 123.03"/><polygon class="cls-2" points="452.58 189.33 472.36 177.91 472.36 200.75 452.58 189.33"/><polygon class="cls-2" points="441.69 205.36 463.92 218.2 441.69 231.04 441.69 205.36"/><polygon class="cls-2" points="398.77 275.93 424.26 261.21 424.26 290.65 398.77 275.93"/><polygon class="cls-2" points="389.99 289.01 417.33 304.8 389.99 320.59 389.99 289.01"/><polygon class="cls-2" points="344.57 362.54 376.36 344.18 376.36 380.89 344.57 362.54"/><polygon class="cls-2" points="337.77 371.77 371.76 391.4 337.77 411.03 337.77 371.77"/><polygon class="cls-2" points="290.99 449.13 328.16 427.68 328.16 470.59 290.99 449.13"/><polygon class="cls-2" points="286.58 456.32 324.15 478 286.58 499.69 286.58 456.32"/><polygon class="cls-2" points="240.48 535.74 278.41 513.84 278.41 557.64 240.48 535.74"/><polygon class="cls-2" points="288.46 575.05 320.38 593.47 288.46 611.9 288.46 575.05"/><polygon class="cls-2" points="297.67 622.34 324.82 606.67 324.82 638.01 297.67 622.34"/><polygon class="cls-2" points="343.77 670.85 359.76 680.08 343.77 689.3 343.77 670.85"/><polygon class="cls-2" points="358.37 708.94 369.46 702.54 369.46 715.34 358.37 708.94"/><polygon class="cls-2" points="397.9 764.59 401.5 766.67 397.9 768.75 397.9 764.59"/><polygon class="cls-2" points="415.16 795.54 416.07 795.02 416.07 796.07 415.16 795.54"/><polygon class="cls-2" points="1048.94 275.67 1049.38 275.93 1048.94 276.19 1048.94 275.67"/><polygon class="cls-2" points="1014.09 218.2 1016.59 216.76 1016.59 219.64 1014.09 218.2"/><polygon class="cls-2" points="997.76 187.02 1001.76 189.33 997.76 191.64 997.76 187.02"/><polygon class="cls-2" points="946.48 98.21 954.31 102.73 946.48 107.25 946.48 98.21"/><polygon class="cls-2" points="909.68 102.73 918.79 97.47 918.79 107.99 909.68 102.73"/><polygon class="cls-2" points="845.14 95.87 857.01 102.73 845.14 109.59 845.14 95.87"/><polygon class="cls-2" points="807.15 102.73 820.06 95.28 820.06 110.18 807.15 102.73"/><polygon class="cls-2" points="744.25 94.34 758.78 102.73 744.25 111.12 744.25 94.34"/><polygon class="cls-2" points="705.91 102.73 720.69 94.2 720.69 111.26 705.91 102.73"/><polygon class="cls-2" points="644.25 94.33 658.79 102.73 644.25 111.13 644.25 94.33"/><polygon class="cls-2" points="606.4 102.73 620.45 94.62 620.45 110.84 606.4 102.73"/><polygon class="cls-2" points="544.74 95.18 557.82 102.73 544.74 110.28 544.74 95.18"/><polygon class="cls-2" points="507.54 102.73 519.88 95.6 519.88 109.86 507.54 102.73"/><polygon class="cls-2" points="456.09 131.6 470.61 123.22 470.61 139.98 456.09 131.6"/><polygon class="cls-2" points="443.4 150.59 460.5 160.46 443.4 170.34 443.4 150.59"/><polygon class="cls-2" points="401.02 218.2 423.14 205.43 423.14 230.97 401.02 218.2"/><polygon class="cls-2" points="391.06 233.14 415.18 247.07 391.06 260.99 391.06 233.14"/><polygon class="cls-2" points="347.04 304.8 375.13 288.58 375.13 321.02 347.04 304.8"/><polygon class="cls-2" points="338.96 316.09 369.39 333.67 338.96 351.24 338.96 316.09"/><polygon class="cls-2" points="292.33 391.4 327.49 371.11 327.49 411.7 292.33 391.4"/><polygon class="cls-2" points="286.71 398.81 323.88 420.27 286.71 441.73 286.71 398.81"/><polygon class="cls-2" points="239.97 478 278.66 455.66 278.66 500.34 239.97 478"/><polygon class="cls-2" points="236.11 484.37 275.08 506.87 236.11 529.38 236.11 484.37"/><polygon class="cls-2" points="236.85 543.38 273.61 564.61 236.85 585.83 236.85 543.38"/><polygon class="cls-2" points="243.25 593.47 277.03 573.97 277.03 612.98 243.25 593.47"/><polygon class="cls-2" points="290.9 637 315.51 651.21 290.9 665.41 290.9 637"/><polygon class="cls-2" points="302.88 680.08 322.21 668.92 322.21 691.23 302.88 680.08"/><polygon class="cls-2" points="345.72 731.95 355.86 737.81 345.72 743.66 345.72 731.95"/><polygon class="cls-2" points="361.79 766.67 367.76 763.23 367.76 770.12 361.79 766.67"/><polygon class="cls-2" points="399.1 824.4 399.1 824.41 399.1 824.42 399.1 824.4"/><polygon class="cls-2" points="1065.22 247.07 1066.03 246.6 1066.03 247.54 1065.22 247.07"/><polygon class="cls-2" points="1048.55 217.26 1050.17 218.2 1048.55 219.13 1048.55 217.26"/><polygon class="cls-2" points="1013.04 160.46 1017.12 158.11 1017.12 162.82 1013.04 160.46"/><polygon class="cls-2" points="997.3 128.49 1002.68 131.6 997.3 134.7 997.3 128.49"/><polygon class="cls-2" points="997.16 70.52 1002.95 73.86 997.16 77.2 997.16 70.52"/><polygon class="cls-2" points="961.16 73.86 968.06 69.88 968.06 77.84 961.16 73.86"/><polygon class="cls-2" points="896.06 68.61 905.16 73.86 896.06 79.12 896.06 68.61"/><polygon class="cls-2" points="858.99 73.86 869.15 68 869.15 79.73 858.99 73.86"/><polygon class="cls-2" points="795.2 67.11 806.89 73.86 795.2 80.61 795.2 67.11"/><polygon class="cls-2" points="757.69 73.86 769.8 66.87 769.8 80.85 757.69 73.86"/><polygon class="cls-2" points="695.03 66.82 707.24 73.86 695.03 80.91 695.03 66.82"/><polygon class="cls-2" points="657.78 73.86 669.75 66.95 669.75 80.77 657.78 73.86"/><polygon class="cls-2" points="595.37 67.41 606.54 73.86 595.37 80.32 595.37 67.41"/><polygon class="cls-2" points="558.67 73.86 569.31 67.72 569.31 80.01 558.67 73.86"/><polygon class="cls-2" points="495.86 68.25 505.58 73.86 495.86 79.48 495.86 68.25"/><polygon class="cls-2" points="459.26 73.86 469.02 68.23 469.02 79.49 459.26 73.86"/><polygon class="cls-2" points="445.09 95.79 457.12 102.73 445.09 109.67 445.09 95.79"/><polygon class="cls-2" points="404.53 160.46 421.39 150.73 421.39 170.2 404.53 160.46"/><polygon class="cls-2" points="392.64 178.14 412.02 189.33 392.64 200.52 392.64 178.14"/><polygon class="cls-2" points="349.54 247.07 373.88 233 373.88 261.12 349.54 247.07"/><polygon class="cls-2" points="340.37 260.81 366.57 275.93 340.37 291.06 340.37 260.81"/><polygon class="cls-2" points="295.18 333.67 326.06 315.84 326.06 351.5 295.18 333.67"/><polygon class="cls-2" points="288.01 343.32 321.29 362.54 288.01 381.75 288.01 343.32"/><polygon class="cls-2" points="240.72 420.27 278.29 398.57 278.29 441.96 240.72 420.27"/><polygon class="cls-2" points="236.18 426.75 274.96 449.13 236.18 471.52 236.18 426.75"/><polygon class="cls-2" points="189.78 506.87 228.76 484.37 228.76 529.38 189.78 506.87"/><polygon class="cls-2" points="186.37 513.68 224.58 535.74 186.37 557.8 186.37 513.68"/><polygon class="cls-2" points="191.04 564.61 228.13 543.2 228.13 586.02 191.04 564.61"/><polygon class="cls-2" points="238.8 604.49 269.71 622.34 238.8 640.18 238.8 604.49"/><polygon class="cls-2" points="248.2 651.21 274.55 636 274.55 666.42 248.2 651.21"/><polygon class="cls-2" points="293.5 699.24 310.3 708.94 293.5 718.64 293.5 699.24"/><polygon class="cls-2" points="307.26 737.81 320.02 730.43 320.02 745.18 307.26 737.81"/><polygon class="cls-2" points="347.65 793.03 352.01 795.54 347.65 798.06 347.65 793.03"/><polygon class="cls-2" points="364.85 824.41 366.23 823.61 366.23 825.21 364.85 824.41"/><polygon class="cls-2" points="1115.75 275.93 1115.76 275.93 1115.76 275.94 1115.75 275.93"/><polygon class="cls-2" points="1098.94 246.81 1099.39 247.07 1098.94 247.32 1098.94 246.81"/><polygon class="cls-2" points="1064.42 189.33 1066.43 188.17 1066.43 190.49 1064.42 189.33"/><polygon class="cls-2" points="1048.09 158.74 1051.09 160.46 1048.09 162.2 1048.09 158.74"/><polygon class="cls-2" points="1012.41 102.73 1017.43 99.83 1017.43 105.63 1012.41 102.73"/><polygon class="cls-2" points="1012.34 45 1017.47 42.04 1017.47 47.95 1012.34 45"/><polygon class="cls-2" points="946.79 41.02 953.69 45 946.79 48.98 946.79 41.02"/><polygon class="cls-2" points="910.66 45 918.3 40.59 918.3 49.41 910.66 45"/><polygon class="cls-2" points="846.03 39.7 855.22 45 846.03 50.3 846.03 39.7"/><polygon class="cls-2" points="809.3 45 818.99 39.41 818.99 50.59 809.3 45"/><polygon class="cls-2" points="745.68 39.07 755.93 45 745.68 50.92 745.68 39.07"/><polygon class="cls-2" points="709.05 45 719.12 39.18 719.12 50.81 709.05 45"/><polygon class="cls-2" points="645.87 39.4 655.56 45 645.87 50.59 645.87 39.4"/><polygon class="cls-2" points="609.6 45 618.85 39.65 618.85 50.34 609.6 45"/><polygon class="cls-2" points="546.29 40.14 554.71 45 546.29 49.86 546.29 40.14"/><polygon class="cls-2" points="510.5 45 518.4 40.44 518.4 49.55 510.5 45"/><polygon class="cls-2" points="446.39 40.31 454.5 45 446.39 49.68 446.39 40.31"/><polygon class="cls-2" points="407.78 102.73 419.76 95.81 419.76 109.65 407.78 102.73"/><polygon class="cls-2" points="394.3 123.29 408.69 131.6 394.3 139.9 394.3 123.29"/><polygon class="cls-2" points="352.98 189.33 372.16 178.26 372.16 200.41 352.98 189.33"/><polygon class="cls-2" points="341.81 205.57 363.69 218.2 341.81 230.83 341.81 205.57"/><polygon class="cls-2" points="298.54 275.93 324.38 261.01 324.38 290.86 298.54 275.93"/><polygon class="cls-2" points="289.84 288.76 317.62 304.8 289.84 320.84 289.84 288.76"/><polygon class="cls-2" points="243.8 362.54 276.75 343.5 276.75 381.56 243.8 362.54"/><polygon class="cls-2" points="237.31 370.99 272.68 391.4 237.31 411.82 237.31 370.99"/><polygon class="cls-2" points="190.1 449.13 228.6 426.91 228.6 471.36 190.1 449.13"/><polygon class="cls-2" points="186.24 455.72 224.82 478 186.24 500.28 186.24 455.72"/><polygon class="cls-2" points="140.97 535.74 178.17 514.26 178.17 557.22 140.97 535.74"/><polygon class="cls-2" points="187.72 573.75 221.87 593.47 187.72 613.19 187.72 573.75"/><polygon class="cls-2" points="195.08 622.34 226.11 604.42 226.11 640.25 195.08 622.34"/><polygon class="cls-2" points="241.72 667.3 263.86 680.08 241.72 692.85 241.72 667.3"/><polygon class="cls-2" points="253.67 708.94 271.82 698.46 271.82 719.42 253.67 708.94"/><polygon class="cls-2" points="295.67 760.73 305.97 766.67 295.67 772.62 295.67 760.73"/><polygon class="cls-2" points="311.67 795.54 317.82 791.99 317.82 799.09 311.67 795.54"/><polygon class="cls-2" points="349 853.11 349.29 853.27 349 853.44 349 853.11"/><polygon class="cls-2" points="1115.21 218.2 1116.03 217.73 1116.03 218.67 1115.21 218.2"/><polygon class="cls-2" points="1098.63 188.53 1100.01 189.33 1098.63 190.13 1098.63 188.53"/><polygon class="cls-2" points="1063.69 131.6 1066.79 129.81 1066.79 133.39 1063.69 131.6"/><polygon class="cls-2" points="1047.81 100.5 1051.66 102.73 1047.81 104.96 1047.81 100.5"/><polygon class="cls-2" points="997.33 13.08 1002.61 16.13 997.33 19.17 997.33 13.08"/><polygon class="cls-2" points="961.85 16.13 967.71 12.74 967.71 19.51 961.85 16.13"/><polygon class="cls-2" points="896.8 12.16 903.67 16.13 896.8 20.09 896.8 12.16"/><polygon class="cls-2" points="860.84 16.13 868.22 11.87 868.22 20.39 860.84 16.13"/><polygon class="cls-2" points="796.42 11.49 804.45 16.13 796.42 20.76 796.42 11.49"/><polygon class="cls-2" points="760.36 16.13 768.47 11.45 768.47 20.81 760.36 16.13"/><polygon class="cls-2" points="696.43 11.51 704.43 16.13 696.43 20.75 696.43 11.51"/><polygon class="cls-2" points="660.6 16.13 668.34 11.66 668.34 20.6 660.6 16.13"/><polygon class="cls-2" points="596.69 11.96 603.91 16.13 596.69 20.3 596.69 11.96"/><polygon class="cls-2" points="561.3 16.13 568 12.26 568 20 561.3 16.13"/><polygon class="cls-2" points="497.03 12.54 503.24 16.13 497.03 19.71 497.03 12.54"/><polygon class="cls-2" points="461.55 16.13 467.87 12.48 467.87 19.78 461.55 16.13"/><polygon class="cls-2" points="410.12 45 418.59 40.1 418.59 49.89 410.12 45"/><polygon class="cls-2" points="395.74 68.04 405.82 73.86 395.74 79.69 395.74 68.04"/><polygon class="cls-2" points="356.23 131.6 370.54 123.33 370.54 139.86 356.23 131.6"/><polygon class="cls-2" points="343.64 151 360.02 160.46 343.64 169.93 343.64 151"/><polygon class="cls-2" points="301.69 218.2 322.81 206 322.81 230.4 301.69 218.2"/><polygon class="cls-2" points="291.42 233.76 314.46 247.07 291.42 260.37 291.42 233.76"/><polygon class="cls-2" points="247.83 304.8 274.74 289.26 274.74 320.33 247.83 304.8"/><polygon class="cls-2" points="239.25 316.6 268.81 333.67 239.25 350.74 239.25 316.6"/><polygon class="cls-2" points="192.67 391.4 227.31 371.4 227.31 411.4 192.67 391.4"/><polygon class="cls-2" points="186.91 399.15 223.48 420.27 186.91 441.38 186.91 399.15"/><polygon class="cls-2" points="140.83 478 178.24 456.4 178.24 499.6 140.83 478"/><polygon class="cls-2" points="136.7 485.39 173.91 506.87 136.7 528.35 136.7 485.39"/><polygon class="cls-2" points="137.51 544.52 172.3 564.61 137.51 584.7 137.51 544.52"/><polygon class="cls-2" points="143.69 593.47 176.81 574.35 176.81 612.59 143.69 593.47"/><polygon class="cls-2" points="190.2 635.79 216.9 651.21 190.2 666.62 190.2 635.79"/><polygon class="cls-2" points="200.83 680.08 223.24 667.14 223.24 693.01 200.83 680.08"/><polygon class="cls-2" points="244.13 729.2 259.04 737.81 244.13 746.42 244.13 729.2"/><polygon class="cls-2" points="258.48 766.67 269.41 760.36 269.41 772.99 258.48 766.67"/><polygon class="cls-2" points="297.82 822.18 301.67 824.41 297.82 826.63 297.82 822.18"/><polygon class="cls-2" points="314.85 853.27 316.23 852.48 316.23 854.07 314.85 853.27"/><polygon class="cls-2" points="1114.68 160.46 1116.3 159.53 1116.3 161.4 1114.68 160.46"/><polygon class="cls-2" points="1098.33 130.28 1100.61 131.6 1098.33 132.92 1098.33 130.28"/><polygon class="cls-2" points="1063.36 73.86 1066.96 71.78 1066.96 75.94 1063.36 73.86"/><polygon class="cls-2" points="1047.72 42.63 1051.83 45 1047.72 47.37 1047.72 42.63"/><polygon class="cls-2" points="396.61 11.82 404.07 16.13 396.61 20.44 396.61 11.82"/><polygon class="cls-2" points="358.82 73.86 369.24 67.84 369.24 79.88 358.82 73.86"/><polygon class="cls-2" points="345.06 95.73 357.18 102.73 345.06 109.73 345.06 95.73"/><polygon class="cls-2" points="305.23 160.46 321.04 151.34 321.04 169.59 305.23 160.46"/><polygon class="cls-2" points="293.2 179.12 310.9 189.33 293.2 199.55 293.2 179.12"/><polygon class="cls-2" points="251.13 247.07 273.08 234.39 273.08 259.74 251.13 247.07"/><polygon class="cls-2" points="241.23 262.29 264.86 275.93 241.23 289.58 241.23 262.29"/><polygon class="cls-2" points="196.79 333.67 225.26 317.23 225.26 350.1 196.79 333.67"/><polygon class="cls-2" points="188.73 344.56 219.85 362.54 188.73 380.5 188.73 344.56"/><polygon class="cls-2" points="142.19 420.27 177.56 399.85 177.56 440.69 142.19 420.27"/><polygon class="cls-2" points="136.99 428.17 173.32 449.13 136.99 470.1 136.99 428.17"/><polygon class="cls-2" points="92.01 506.87 127.65 486.29 127.65 527.45 92.01 506.87"/><polygon class="cls-2" points="87.69 515.97 121.93 535.74 87.69 555.51 87.69 515.97"/><polygon class="cls-2" points="93.75 564.61 126.78 545.53 126.78 583.68 93.75 564.61"/><polygon class="cls-2" points="139.51 605.73 168.29 622.34 139.51 638.95 139.51 605.73"/><polygon class="cls-2" points="148.7 651.21 174.3 636.43 174.3 665.99 148.7 651.21"/><polygon class="cls-2" points="193.03 698.41 211.26 708.94 193.03 719.47 193.03 698.41"/><polygon class="cls-2" points="205.93 737.81 220.69 729.29 220.69 746.33 205.93 737.81"/><polygon class="cls-2" points="246.68 791.35 253.94 795.54 246.68 799.73 246.68 791.35"/><polygon class="cls-2" points="262.88 824.41 267.21 821.91 267.21 826.9 262.88 824.41"/><polygon class="cls-2" points="299.1 882.14 299.11 882.14 299.1 882.15 299.1 882.14"/><polygon class="cls-2" points="1114.25 102.73 1116.51 101.43 1116.51 104.03 1114.25 102.73"/><polygon class="cls-2" points="1098.16 72.26 1100.94 73.86 1098.16 75.46 1098.16 72.26"/><polygon class="cls-2" points="1063.36 16.13 1066.96 14.05 1066.96 18.21 1063.36 16.13"/><polygon class="cls-2" points="360.55 16.13 368.37 11.61 368.37 20.65 360.55 16.13"/><polygon class="cls-2" points="345.98 39.59 355.35 45 345.98 50.41 345.98 39.59"/><polygon class="cls-2" points="307.81 102.73 319.75 95.84 319.75 109.62 307.81 102.73"/><polygon class="cls-2" points="294.64 123.87 308.02 131.6 294.64 139.33 294.64 123.87"/><polygon class="cls-2" points="254.75 189.33 271.28 179.79 271.28 198.88 254.75 189.33"/><polygon class="cls-2" points="242.92 207.49 261.47 218.2 242.92 228.91 242.92 207.49"/><polygon class="cls-2" points="201.09 275.93 223.11 263.22 223.11 288.65 201.09 275.93"/><polygon class="cls-2" points="191.03 290.81 215.25 304.8 191.03 318.78 191.03 290.81"/><polygon class="cls-2" points="145.98 362.54 175.67 345.4 175.67 379.68 145.98 362.54"/><polygon class="cls-2" points="138.38 372.83 170.54 391.4 138.38 409.97 138.38 372.83"/><polygon class="cls-2" points="92.47 449.13 127.42 428.96 127.42 469.31 92.47 449.13"/><polygon class="cls-2" points="87.44 457.8 122.44 478 87.44 498.21 87.44 457.8"/><polygon class="cls-2" points="44.1 535.74 76.61 516.97 76.61 554.51 44.1 535.74"/><polygon class="cls-2" points="89.45 576.74 118.42 593.47 89.45 610.2 89.45 576.74"/><polygon class="cls-2" points="98.21 622.34 124.55 607.13 124.55 637.55 98.21 622.34"/><polygon class="cls-2" points="142.36 668.4 162.58 680.08 142.36 691.75 142.36 668.4"/><polygon class="cls-2" points="154.15 708.94 171.58 698.88 171.58 719 154.15 708.94"/><polygon class="cls-2" points="195.47 760.38 206.37 766.67 195.47 772.98 195.47 760.38"/><polygon class="cls-2" points="210.98 795.54 218.16 791.39 218.16 799.69 210.98 795.54"/><polygon class="cls-2" points="248.48 852.2 250.35 853.27 248.48 854.35 248.48 852.2"/><polygon class="cls-2" points="265.76 882.14 265.77 882.14 265.77 882.15 265.76 882.14"/><polygon class="cls-2" points="1114.09 45 1116.59 43.55 1116.59 46.44 1114.09 45"/><polygon class="cls-2" points="1098.14 14.48 1100.99 16.13 1098.14 17.77 1098.14 14.48"/><polygon class="cls-2" points="309.39 45 318.95 39.48 318.95 50.51 309.39 45"/><polygon class="cls-2" points="295.56 67.72 306.19 73.86 295.56 80.01 295.56 67.72"/><polygon class="cls-2" points="257.41 131.6 269.94 124.36 269.94 138.84 257.41 131.6"/><polygon class="cls-2" points="244.59 152.66 258.12 160.46 244.59 168.27 244.59 152.66"/><polygon class="cls-2" points="204.59 218.2 221.36 208.52 221.36 227.87 204.59 218.2"/><polygon class="cls-2" points="192.94 236.38 211.44 247.07 192.94 257.75 192.94 236.38"/><polygon class="cls-2" points="150.94 304.8 173.19 291.96 173.19 317.64 150.94 304.8"/><polygon class="cls-2" points="140.72 319.14 165.88 333.67 140.72 348.19 140.72 319.14"/><polygon class="cls-2" points="95.34 391.4 125.98 373.71 125.98 409.09 95.34 391.4"/><polygon class="cls-2" points="88.22 401.41 120.88 420.27 88.22 439.13 88.22 401.41"/><polygon class="cls-2" points="43.33 478 76.99 458.56 76.99 497.44 43.33 478"/><polygon class="cls-2" points="38.16 487.92 70.99 506.87 38.16 525.82 38.16 487.92"/><polygon class="cls-2" points="39.46 547.9 68.38 564.61 39.46 581.3 39.46 547.9"/><polygon class="cls-2" points="48.09 593.47 74.61 578.17 74.61 608.78 48.09 593.47"/><polygon class="cls-2" points="92.03 638.96 113.24 651.21 92.03 663.45 92.03 638.96"/><polygon class="cls-2" points="103.74 680.08 121.78 669.66 121.78 690.49 103.74 680.08"/><polygon class="cls-2" points="144.81 730.37 157.69 737.81 144.81 745.24 144.81 730.37"/><polygon class="cls-2" points="159.13 766.67 169.09 760.92 169.09 772.42 159.13 766.67"/><polygon class="cls-2" points="197.75 822.05 201.82 824.41 197.75 826.76 197.75 822.05"/><polygon class="cls-2" points="214.64 853.27 216.34 852.3 216.34 854.26 214.64 853.27"/><polygon class="cls-2" points="296.18 11.07 304.95 16.13 296.18 21.19 296.18 11.07"/><polygon class="cls-2" points="258.8 73.86 269.25 67.83 269.25 79.9 258.8 73.86"/><polygon class="cls-2" points="245.54 96.56 256.22 102.73 245.54 108.89 245.54 96.56"/><polygon class="cls-2" points="207.85 160.46 219.73 153.6 219.73 167.33 207.85 160.46"/><polygon class="cls-2" points="194.72 181.75 207.86 189.33 194.72 196.92 194.72 181.75"/><polygon class="cls-2" points="154.78 247.07 171.26 237.55 171.26 256.58 154.78 247.07"/><polygon class="cls-2" points="143.09 265.53 161.12 275.93 143.09 286.34 143.09 265.53"/><polygon class="cls-2" points="100.08 333.67 123.61 320.07 123.61 347.26 100.08 333.67"/><polygon class="cls-2" points="90.25 347.19 116.82 362.54 90.25 377.88 90.25 347.19"/><polygon class="cls-2" points="44.73 420.27 76.29 402.05 76.29 438.48 44.73 420.27"/><polygon class="cls-2" points="38.21 430.28 70.88 449.13 38.21 467.99 38.21 430.28"/><polygon class="cls-2" points="-5.5 506.87 26.41 488.45 26.41 525.29 -5.5 506.87"/><polygon class="cls-2" points="-10.95 518.33 19.2 535.74 -10.95 553.14 -10.95 518.33"/><polygon class="cls-2" points="-2.59 564.61 24.95 548.71 24.95 580.5 -2.59 564.61"/><polygon class="cls-2" points="42 610.03 63.31 622.34 42 634.65 42 610.03"/><polygon class="cls-2" points="53.43 651.21 71.94 640.52 71.94 661.89 53.43 651.21"/><polygon class="cls-2" points="94.63 701.2 108.05 708.94 94.63 716.68 94.63 701.2"/><polygon class="cls-2" points="108.43 737.81 119.44 731.45 119.44 744.17 108.43 737.81"/><polygon class="cls-2" points="147.2 792.25 152.91 795.54 147.2 798.84 147.2 792.25"/><polygon class="cls-2" points="163.37 824.41 166.97 822.33 166.97 826.49 163.37 824.41"/><polygon class="cls-2" points="199.1 882.14 199.11 882.14 199.1 882.15 199.1 882.14"/><polygon class="cls-2" points="259.75 16.13 268.78 10.91 268.78 21.34 259.75 16.13"/><polygon class="cls-2" points="245.92 39.48 255.47 45 245.92 50.51 245.92 39.48"/><polygon class="cls-2" points="209.51 102.73 218.9 97.31 218.9 108.15 209.51 102.73"/><polygon class="cls-2" points="195.91 126.07 205.49 131.6 195.91 137.13 195.91 126.07"/><polygon class="cls-2" points="158.36 189.33 169.47 182.91 169.47 195.75 158.36 189.33"/><polygon class="cls-2" points="144.91 210.93 157.5 218.2 144.91 225.47 144.91 210.93"/><polygon class="cls-2" points="105.1 275.93 121.1 266.69 121.1 285.17 105.1 275.93"/><polygon class="cls-2" points="92.93 294.11 111.45 304.8 92.93 315.49 92.93 294.11"/><polygon class="cls-2" points="48.85 362.54 74.23 347.88 74.23 377.19 48.85 362.54"/><polygon class="cls-2" points="39.66 375.06 67.98 391.4 39.66 407.75 39.66 375.06"/><polygon class="cls-2" points="-5.52 449.13 26.42 430.69 26.42 467.58 -5.52 449.13"/><polygon class="cls-2" points="-11.57 459.52 20.45 478 -11.57 496.49 -11.57 459.52"/><polygon class="cls-2" points="-8.61 580.11 14.54 593.47 -8.61 606.84 -8.61 580.11"/><polygon class="cls-2" points="2.81 622.34 22.25 611.12 22.25 633.56 2.81 622.34"/><polygon class="cls-2" points="44.7 672.44 57.92 680.08 44.7 687.71 44.7 672.44"/><polygon class="cls-2" points="58.43 708.94 69.44 702.58 69.44 715.3 58.43 708.94"/><polygon class="cls-2" points="96.86 762.78 103.6 766.67 96.86 770.57 96.86 762.78"/><polygon class="cls-2" points="112.81 795.54 117.25 792.98 117.25 798.1 112.81 795.54"/><polygon class="cls-2" points="148.72 852.61 149.86 853.27 148.72 853.93 148.72 852.61"/><polygon class="cls-2" points="210.07 45 218.61 40.07 218.61 49.92 210.07 45"/><polygon class="cls-2" points="196.36 69.11 204.59 73.86 196.36 78.61 196.36 69.11"/><polygon class="cls-2" points="160.59 131.6 168.36 127.11 168.36 136.08 160.59 131.6"/><polygon class="cls-2" points="146.44 155.86 154.43 160.46 146.44 165.08 146.44 155.86"/><polygon class="cls-2" points="108.83 218.2 119.24 212.18 119.24 224.21 108.83 218.2"/><polygon class="cls-2" points="95.04 240.02 107.23 247.07 95.04 254.11 95.04 240.02"/><polygon class="cls-2" points="54.54 304.8 71.39 295.07 71.39 314.52 54.54 304.8"/><polygon class="cls-2" points="42.23 321.76 62.85 333.67 42.23 345.58 42.23 321.76"/><polygon class="cls-2" points="-2.6 391.4 24.96 375.49 24.96 407.31 -2.6 391.4"/><polygon class="cls-2" points="-10.88 402.98 19.07 420.27 -10.88 437.56 -10.88 402.98"/><polygon class="cls-2" points="-5.84 642.64 9 651.21 -5.84 659.77 -5.84 642.64"/><polygon class="cls-2" points="8.07 680.08 19.62 673.41 19.62 686.74 8.07 680.08"/><polygon class="cls-2" points="46.77 733.76 53.77 737.81 46.77 741.85 46.77 733.76"/><polygon class="cls-2" points="62.47 766.67 67.42 763.82 67.42 769.53 62.47 766.67"/><polygon class="cls-2" points="98.56 823.47 100.19 824.41 98.56 825.35 98.56 823.47"/><polygon class="cls-2" points="115.48 853.27 115.92 853.02 115.92 853.53 115.48 853.27"/><polygon class="cls-2" points="196.54 11.69 204.22 16.13 196.54 20.56 196.54 11.69"/><polygon class="cls-2" points="161.38 73.86 167.97 70.06 167.97 77.67 161.38 73.86"/><polygon class="cls-2" points="147.09 99.25 153.13 102.73 147.09 106.21 147.09 99.25"/><polygon class="cls-2" points="111.69 160.46 117.81 156.93 117.81 164 111.69 160.46"/><polygon class="cls-2" points="96.79 185.33 103.72 189.33 96.79 193.33 96.79 185.33"/><polygon class="cls-2" points="58.93 247.07 69.19 241.14 69.19 252.99 58.93 247.07"/><polygon class="cls-2" points="44.94 268.72 57.44 275.93 44.94 283.15 44.94 268.72"/><polygon class="cls-2" points="2.68 333.67 22.32 322.33 22.32 345.01 2.68 333.67"/><polygon class="cls-2" points="-8.79 348.86 14.89 362.54 -8.79 376.2 -8.79 348.86"/><polygon class="cls-2" points="-3.49 704.45 4.29 708.94 -3.49 713.43 -3.49 704.45"/><polygon class="cls-2" points="12.13 737.81 17.59 734.66 17.59 740.96 12.13 737.81"/><polygon class="cls-2" points="48.54 794.56 50.24 795.54 48.54 796.52 48.54 794.56"/><polygon class="cls-2" points="65.32 824.41 66 824.02 66 824.8 65.32 824.41"/><polygon class="cls-2" points="161.52 16.13 167.9 12.45 167.9 19.81 161.52 16.13"/><polygon class="cls-2" points="147.19 41.68 152.93 45 147.19 48.31 147.19 41.68"/><polygon class="cls-2" points="112.9 102.73 117.2 100.25 117.2 105.21 112.9 102.73"/><polygon class="cls-2" points="97.75 129.24 101.82 131.6 97.75 133.95 97.75 129.24"/><polygon class="cls-2" points="62.38 189.33 67.47 186.4 67.47 192.27 62.38 189.33"/><polygon class="cls-2" points="46.92 214.42 53.47 218.2 46.92 221.98 46.92 214.42"/><polygon class="cls-2" points="8.43 275.93 19.44 269.58 19.44 282.29 8.43 275.93"/><polygon class="cls-2" points="-5.66 296.55 8.63 304.8 -5.66 313.05 -5.66 296.55"/><polygon class="cls-2" points="-1.76 765.17 0.84 766.67 -1.76 768.18 -1.76 765.17"/><polygon class="cls-2" points="15.17 795.54 16.07 795.02 16.07 796.07 15.17 795.54"/><polygon class="cls-2" points="112.84 45 117.23 42.46 117.23 47.53 112.84 45"/><polygon class="cls-2" points="97.93 71.83 101.45 73.86 97.93 75.89 97.93 71.83"/><polygon class="cls-2" points="64.2 131.6 66.56 130.24 66.56 132.96 64.2 131.6"/><polygon class="cls-2" points="48.2 158.9 50.91 160.46 48.2 162.03 48.2 158.9"/><polygon class="cls-2" points="12.36 218.2 17.48 215.25 17.48 221.15 12.36 218.2"/><polygon class="cls-2" points="-3.35 242.82 4.01 247.07 -3.35 251.31 -3.35 242.82"/><polygon class="cls-2" points="97.76 13.8 101.79 16.13 97.76 18.46 97.76 13.8"/><polygon class="cls-2" points="64.31 73.86 66.5 72.59 66.5 75.13 64.31 73.86"/><polygon class="cls-2" points="48.65 101.93 50.03 102.73 48.65 103.53 48.65 101.93"/><polygon class="cls-2" points="14.81 160.46 16.25 159.63 16.25 161.3 14.81 160.46"/><polygon class="cls-2" points="-1.65 188.02 0.62 189.33 -1.65 190.64 -1.65 188.02"/><polygon class="cls-2" points="63.73 16.13 66.79 14.37 66.79 17.89 63.73 16.13"/><polygon class="cls-2" points="48.41 43.79 50.5 45 48.41 46.21 48.41 43.79"/><polygon class="cls-2" points="15.52 102.73 15.9 102.51 15.9 102.95 15.52 102.73"/><polygon class="cls-2" points="15 45 16.16 44.33 16.16 45.67 15 45"/><polygon class="cls-2" points="-1.41 15.24 0.13 16.13 -1.41 17.02 -1.41 15.24"/><polygon class="cls-2" points="1563.49 506.79 1563.35 506.87 1563.49 506.95 1563.49 506.79"/><polygon class="cls-2" points="1597.28 506.87 1596.53 506.44 1596.53 507.31 1597.28 506.87"/><polygon class="cls-2" points="1547.58 478 1546.38 477.31 1546.38 478.7 1547.58 478"/><polygon class="cls-2" points="1614.41 476.32 1611.51 478 1614.41 479.68 1614.41 476.32"/><polygon class="cls-2" points="1646.99 535.74 1646.67 535.55 1646.67 535.92 1646.99 535.74"/><polygon class="cls-2" points="1564.6 447.14 1561.14 449.13 1564.6 451.13 1564.6 447.14"/><polygon class="cls-2" points="1599.8 449.13 1595.27 446.52 1595.27 451.75 1599.8 449.13"/><polygon class="cls-2" points="1649.33 478 1645.5 475.79 1645.5 480.22 1649.33 478"/><polygon class="cls-2" points="1664.28 505.42 1661.77 506.87 1664.28 508.32 1664.28 505.42"/><polygon class="cls-2" points="1513.57 477.79 1513.2 478 1513.57 478.21 1513.57 477.79"/><polygon class="cls-2" points="1514.62 418.23 1511.09 420.27 1514.62 422.31 1514.62 418.23"/><polygon class="cls-2" points="1550.19 420.27 1545.07 417.31 1545.07 423.22 1550.19 420.27"/><polygon class="cls-2" points="1616.06 415.73 1608.21 420.27 1616.06 424.8 1616.06 415.73"/><polygon class="cls-2" points="1652.94 420.27 1643.7 414.93 1643.7 425.6 1652.94 420.27"/><polygon class="cls-2" points="1665.79 445.08 1658.76 449.13 1665.79 453.19 1665.79 445.08"/><polygon class="cls-2" points="1699.57 506.87 1695.38 504.45 1695.38 509.29 1699.57 506.87"/><polygon class="cls-2" points="1714.48 533.94 1711.37 535.74 1714.48 537.53 1714.48 533.94"/><polygon class="cls-2" points="1697.1 564.61 1696.62 564.33 1696.62 564.88 1697.1 564.61"/><polygon class="cls-2" points="1497.49 449.13 1496.43 448.52 1496.43 449.75 1497.49 449.13"/><polygon class="cls-2" points="1499.8 391.4 1495.27 388.78 1495.27 394.02 1499.8 391.4"/><polygon class="cls-2" points="1566.29 386.47 1557.76 391.4 1566.29 396.33 1566.29 386.47"/><polygon class="cls-2" points="1603.65 391.4 1593.34 385.45 1593.34 397.36 1603.65 391.4"/><polygon class="cls-2" points="1667.89 383.7 1654.55 391.4 1667.89 399.1 1667.89 383.7"/><polygon class="cls-2" points="1702.5 449.13 1693.92 444.18 1693.92 454.1 1702.5 449.13"/><polygon class="cls-2" points="1715.8 473.93 1708.74 478 1715.8 482.07 1715.8 473.93"/><polygon class="cls-2" points="1750.27 535.74 1745.03 532.71 1745.03 538.77 1750.27 535.74"/><polygon class="cls-2" points="1463.45 449.12 1463.43 449.13 1463.45 449.15 1463.45 449.12"/><polygon class="cls-2" points="1515.95 358.19 1508.43 362.54 1515.95 366.88 1515.95 358.19"/><polygon class="cls-2" points="1553.43 362.54 1543.46 356.78 1543.46 368.29 1553.43 362.54"/><polygon class="cls-2" points="1618.08 354.51 1604.18 362.54 1618.08 370.56 1618.08 354.51"/><polygon class="cls-2" points="1657.01 362.54 1641.66 353.68 1641.66 371.39 1657.01 362.54"/><polygon class="cls-2" points="1706.79 391.4 1691.77 382.73 1691.77 400.08 1706.79 391.4"/><polygon class="cls-2" points="1717.67 412.95 1704.99 420.27 1717.67 427.58 1717.67 412.95"/><polygon class="cls-2" points="1753.05 478 1743.64 472.57 1743.64 483.44 1753.05 478"/><polygon class="cls-2" points="1766.39 501.77 1757.55 506.87 1766.39 511.97 1766.39 501.77"/><polygon class="cls-2" points="1764.99 561.92 1760.34 564.61 1764.99 567.29 1764.99 561.92"/><polygon class="cls-2" points="1747.79 593.47 1746.27 592.59 1746.27 594.35 1747.79 593.47"/><polygon class="cls-2" points="1447.24 420.27 1446.55 419.87 1446.55 420.67 1447.24 420.27"/><polygon class="cls-2" points="1464.36 389.82 1461.62 391.4 1464.36 392.98 1464.36 389.82"/><polygon class="cls-2" points="1465.42 330.25 1459.5 333.67 1465.42 337.09 1465.42 330.25"/><polygon class="cls-2" points="1502.14 333.67 1494.1 329.02 1494.1 338.31 1502.14 333.67"/><polygon class="cls-2" points="1567.85 326.05 1554.64 333.67 1567.85 341.29 1567.85 326.05"/><polygon class="cls-2" points="1606.99 333.67 1591.67 324.82 1591.67 342.51 1606.99 333.67"/><polygon class="cls-2" points="1669.59 323.02 1651.15 333.67 1669.59 344.31 1669.59 323.02"/><polygon class="cls-2" points="1709.92 333.67 1690.2 322.28 1690.2 345.05 1709.92 333.67"/><polygon class="cls-2" points="1719.55 351.96 1701.24 362.54 1719.55 373.11 1719.55 351.96"/><polygon class="cls-2" points="1756.67 420.27 1741.83 411.69 1741.83 428.85 1756.67 420.27"/><polygon class="cls-2" points="1767.91 441.41 1754.52 449.13 1767.91 456.87 1767.91 441.41"/><polygon class="cls-2" points="1805.01 506.87 1792.66 499.74 1792.66 514 1805.01 506.87"/><polygon class="cls-2" points="1817.47 528.76 1805.38 535.74 1817.47 542.72 1817.47 528.76"/><polygon class="cls-2" points="1802.12 564.61 1794.11 559.98 1794.11 569.23 1802.12 564.61"/><polygon class="cls-2" points="1763.83 621.68 1762.68 622.34 1763.83 623 1763.83 621.68"/><polygon class="cls-2" points="1449.1 362.54 1445.62 360.52 1445.62 364.55 1449.1 362.54"/><polygon class="cls-2" points="1450.97 304.8 1444.69 301.17 1444.69 308.43 1450.97 304.8"/><polygon class="cls-2" points="1517.19 298.31 1505.95 304.8 1517.19 311.29 1517.19 298.31"/><polygon class="cls-2" points="1556.01 304.8 1542.16 296.8 1542.16 312.8 1556.01 304.8"/><polygon class="cls-2" points="1619.47 294.37 1601.4 304.8 1619.47 315.23 1619.47 294.37"/><polygon class="cls-2" points="1659.83 304.8 1640.25 293.5 1640.25 316.11 1659.83 304.8"/><polygon class="cls-2" points="1720.63 292.36 1699.07 304.8 1720.63 317.24 1720.63 292.36"/><polygon class="cls-2" points="1760.04 362.54 1740.15 351.05 1740.15 374.02 1760.04 362.54"/><polygon class="cls-2" points="1769.72 380.52 1750.88 391.4 1769.72 402.28 1769.72 380.52"/><polygon class="cls-2" points="1807.9 449.13 1791.21 439.5 1791.21 458.77 1807.9 449.13"/><polygon class="cls-2" points="1818.84 468.65 1802.65 478 1818.84 487.35 1818.84 468.65"/><polygon class="cls-2" points="1857.77 535.74 1841.28 526.22 1841.28 545.26 1857.77 535.74"/><polygon class="cls-2" points="1815.97 589.1 1808.4 593.47 1815.97 597.84 1815.97 589.1"/><polygon class="cls-2" points="1799.33 622.34 1795.5 620.13 1795.5 624.54 1799.33 622.34"/><polygon class="cls-2" points="1414.02 361.55 1412.31 362.54 1414.02 363.52 1414.02 361.55"/><polygon class="cls-2" points="1466.36 270.88 1457.61 275.93 1466.36 280.98 1466.36 270.88"/><polygon class="cls-2" points="1504.23 275.93 1493.06 269.49 1493.06 282.38 1504.23 275.93"/><polygon class="cls-2" points="1568.91 266.47 1552.51 275.93 1568.91 285.4 1568.91 266.47"/><polygon class="cls-2" points="1609.11 275.93 1590.62 265.25 1590.62 286.61 1609.11 275.93"/><polygon class="cls-2" points="1670.52 263.68 1649.3 275.93 1670.52 288.18 1670.52 263.68"/><polygon class="cls-2" points="1711.41 275.93 1689.46 263.26 1689.46 288.61 1711.41 275.93"/><polygon class="cls-2" points="1761.88 304.8 1739.23 291.73 1739.23 317.88 1761.88 304.8"/><polygon class="cls-2" points="1770.86 320.82 1748.61 333.67 1770.86 346.51 1770.86 320.82"/><polygon class="cls-2" points="1810.94 391.4 1789.69 379.13 1789.69 403.67 1810.94 391.4"/><polygon class="cls-2" points="1820.36 408.3 1799.62 420.27 1820.36 432.24 1820.36 408.3"/><polygon class="cls-2" points="1860.39 478 1839.97 466.21 1839.97 489.79 1860.39 478"/><polygon class="cls-2" points="1870.43 494.76 1849.46 506.87 1870.43 518.98 1870.43 494.76"/><polygon class="cls-2" points="1868.99 554.99 1852.34 564.61 1868.99 574.22 1868.99 554.99"/><polygon class="cls-2" points="1854.5 593.47 1842.91 586.78 1842.91 600.16 1854.5 593.47"/><polygon class="cls-2" points="1814.56 649.27 1811.21 651.21 1814.56 653.14 1814.56 649.27"/><polygon class="cls-2" points="1797.23 680.08 1796.55 679.69 1796.55 680.46 1797.23 680.08"/><polygon class="cls-2" points="1398.2 333.67 1396.07 332.44 1396.07 334.9 1398.2 333.67"/><polygon class="cls-2" points="1414.9 302.29 1410.55 304.8 1414.9 307.31 1414.9 302.29"/><polygon class="cls-2" points="1415.67 243.23 1409.01 247.07 1415.67 250.91 1415.67 243.23"/><polygon class="cls-2" points="1452.7 247.07 1443.82 241.94 1443.82 252.2 1452.7 247.07"/><polygon class="cls-2" points="1518.02 239.14 1504.3 247.07 1518.02 254.99 1518.02 239.14"/><polygon class="cls-2" points="1557.66 247.07 1541.34 237.65 1541.34 256.49 1557.66 247.07"/><polygon class="cls-2" points="1620.09 235.55 1600.15 247.07 1620.09 258.58 1620.09 235.55"/><polygon class="cls-2" points="1660.96 247.07 1639.69 234.78 1639.69 259.35 1660.96 247.07"/><polygon class="cls-2" points="1720.97 234.03 1698.39 247.07 1720.97 260.11 1720.97 234.03"/><polygon class="cls-2" points="1762.09 247.07 1739.12 233.8 1739.12 260.33 1762.09 247.07"/><polygon class="cls-2" points="1771.24 262.43 1747.85 275.93 1771.24 289.44 1771.24 262.43"/><polygon class="cls-2" points="1812.49 333.67 1788.92 320.06 1788.92 347.27 1812.49 333.67"/><polygon class="cls-2" points="1821.32 348.89 1797.69 362.54 1821.32 376.18 1821.32 348.89"/><polygon class="cls-2" points="1862.98 420.27 1838.68 406.24 1838.68 434.3 1862.98 420.27"/><polygon class="cls-2" points="1871.67 434.88 1846.98 449.13 1871.67 463.39 1871.67 434.88"/><polygon class="cls-2" points="1913.63 506.87 1888.35 492.27 1888.35 521.47 1913.63 506.87"/><polygon class="cls-2" points="1921.99 520.93 1896.35 535.74 1921.99 550.54 1921.99 520.93"/><polygon class="cls-2" points="1910.85 564.61 1889.74 552.41 1889.74 576.79 1910.85 564.61"/><polygon class="cls-2" points="1867.14 615.93 1856.05 622.34 1867.14 628.74 1867.14 615.93"/><polygon class="cls-2" points="1851.2 651.21 1844.57 647.37 1844.57 655.04 1851.2 651.21"/><polygon class="cls-2" points="1813.59 708.68 1813.15 708.94 1813.59 709.2 1813.59 708.68"/><polygon class="cls-2" points="1363.72 333.2 1362.91 333.67 1363.72 334.13 1363.72 333.2"/><polygon class="cls-2" points="1399.77 275.93 1395.29 273.35 1395.29 278.52 1399.77 275.93"/><polygon class="cls-2" points="1401.29 218.2 1394.53 214.3 1394.53 222.1 1401.29 218.2"/><polygon class="cls-2" points="1467.18 211.73 1455.98 218.2 1467.18 224.66 1467.18 211.73"/><polygon class="cls-2" points="1505.72 218.2 1492.31 210.46 1492.31 225.94 1505.72 218.2"/><polygon class="cls-2" points="1569.45 207.79 1551.43 218.2 1569.45 228.6 1569.45 207.79"/><polygon class="cls-2" points="1610.02 218.2 1590.16 206.73 1590.16 229.66 1610.02 218.2"/><polygon class="cls-2" points="1670.74 205.55 1648.84 218.2 1670.74 230.84 1670.74 205.55"/><polygon class="cls-2" points="1711.63 218.2 1689.35 205.33 1689.35 231.07 1711.63 218.2"/><polygon class="cls-2" points="1771.01 205.09 1748.31 218.2 1771.01 231.3 1771.01 205.09"/><polygon class="cls-2" points="1812.71 275.93 1788.81 262.14 1788.81 289.73 1812.71 275.93"/><polygon class="cls-2" points="1821.6 290.67 1797.13 304.8 1821.6 318.93 1821.6 290.67"/><polygon class="cls-2" points="1864 362.54 1838.16 347.62 1838.16 377.46 1864 362.54"/><polygon class="cls-2" points="1872.4 375.89 1845.53 391.4 1872.4 406.92 1872.4 375.89"/><polygon class="cls-2" points="1915.69 449.13 1887.32 432.75 1887.32 465.52 1915.69 449.13"/><polygon class="cls-2" points="1923.06 461.35 1894.21 478 1923.06 494.66 1923.06 461.35"/><polygon class="cls-2" points="1966.62 535.74 1936.85 518.55 1936.85 552.92 1966.62 535.74"/><polygon class="cls-2" points="1920.23 581.71 1899.86 593.47 1920.23 605.24 1920.23 581.71"/><polygon class="cls-2" points="1906.89 622.34 1891.71 613.57 1891.71 631.1 1906.89 622.34"/><polygon class="cls-2" points="1865.4 676.67 1859.52 680.08 1865.4 683.48 1865.4 676.67"/><polygon class="cls-2" points="1848.51 708.94 1845.91 707.43 1845.91 710.44 1848.51 708.94"/><polygon class="cls-2" points="1347.68 304.8 1346.33 304.02 1346.33 305.58 1347.68 304.8"/><polygon class="cls-2" points="1364.44 274.22 1361.47 275.93 1364.44 277.65 1364.44 274.22"/><polygon class="cls-2" points="1416.45 184.14 1407.45 189.33 1416.45 194.53 1416.45 184.14"/><polygon class="cls-2" points="1454.27 189.33 1443.04 182.85 1443.04 195.81 1454.27 189.33"/><polygon class="cls-2" points="1518.61 180.38 1503.11 189.33 1518.61 198.28 1518.61 180.38"/><polygon class="cls-2" points="1558.56 189.33 1540.89 179.13 1540.89 199.53 1558.56 189.33"/><polygon class="cls-2" points="1620.19 177.64 1599.95 189.33 1620.19 201.02 1620.19 177.64"/><polygon class="cls-2" points="1660.85 189.33 1639.74 177.14 1639.74 201.52 1660.85 189.33"/><polygon class="cls-2" points="1720.52 177.08 1699.29 189.33 1720.52 201.58 1720.52 177.08"/><polygon class="cls-2" points="1760.82 189.33 1739.76 177.17 1739.76 201.49 1760.82 189.33"/><polygon class="cls-2" points="1811.72 218.2 1789.31 205.26 1789.31 231.14 1811.72 218.2"/><polygon class="cls-2" points="1821.26 233.52 1797.8 247.07 1821.26 260.61 1821.26 233.52"/><polygon class="cls-2" points="1863.74 304.8 1838.29 290.1 1838.29 319.5 1863.74 304.8"/><polygon class="cls-2" points="1872.31 318.32 1845.72 333.67 1872.31 349.02 1872.31 318.32"/><polygon class="cls-2" points="1916.59 391.4 1886.87 374.24 1886.87 408.57 1916.59 391.4"/><polygon class="cls-2" points="1923.76 402.4 1892.8 420.27 1923.76 438.14 1923.76 402.4"/><polygon class="cls-2" points="1968.29 478 1936.02 459.37 1936.02 496.64 1968.29 478"/><polygon class="cls-2" points="1974.51 487.71 1941.31 506.87 1974.51 526.03 1974.51 487.71"/><polygon class="cls-2" points="1973.31 547.51 1943.71 564.61 1973.31 581.7 1973.31 547.51"/><polygon class="cls-2" points="1963.16 593.47 1938.58 579.28 1938.58 607.66 1963.16 593.47"/><polygon class="cls-2" points="1918.05 643.22 1904.22 651.21 1918.05 659.19 1918.05 643.22"/><polygon class="cls-2" points="1902.76 680.08 1893.78 674.88 1893.78 685.26 1902.76 680.08"/><polygon class="cls-2" points="1864.23 736.45 1861.87 737.81 1864.23 739.17 1864.23 736.45"/><polygon class="cls-2" points="1846.78 766.67 1846.78 766.67 1846.78 766.68 1846.78 766.67"/><polygon class="cls-2" points="1313.6 304.55 1313.15 304.8 1313.6 305.06 1313.6 304.55"/><polygon class="cls-2" points="1349 247.07 1345.68 245.15 1345.68 248.98 1349 247.07"/><polygon class="cls-2" points="1365.14 215.26 1360.06 218.2 1365.14 221.14 1365.14 215.26"/><polygon class="cls-2" points="1365.8 156.39 1358.75 160.46 1365.8 164.53 1365.8 156.39"/><polygon class="cls-2" points="1402.68 160.46 1393.83 155.36 1393.83 165.57 1402.68 160.46"/><polygon class="cls-2" points="1467.72 153.06 1454.89 160.46 1467.72 167.87 1467.72 153.06"/><polygon class="cls-2" points="1506.54 160.46 1491.9 152.01 1491.9 168.92 1506.54 160.46"/><polygon class="cls-2" points="1569.43 150.1 1551.48 160.46 1569.43 170.83 1569.43 150.1"/><polygon class="cls-2" points="1609.39 160.46 1590.47 149.54 1590.47 171.39 1609.39 160.46"/><polygon class="cls-2" points="1669.97 149.15 1650.38 160.46 1669.97 171.78 1669.97 149.15"/><polygon class="cls-2" points="1709.68 160.46 1690.33 149.29 1690.33 171.64 1709.68 160.46"/><polygon class="cls-2" points="1769.67 149.68 1750.99 160.46 1769.67 171.25 1769.67 149.68"/><polygon class="cls-2" points="1808.78 160.46 1790.77 150.07 1790.77 170.86 1808.78 160.46"/><polygon class="cls-2" points="1820.2 177.63 1799.94 189.33 1820.2 201.03 1820.2 177.63"/><polygon class="cls-2" points="1862.62 247.07 1838.85 233.34 1838.85 260.79 1862.62 247.07"/><polygon class="cls-2" points="1871.77 261.51 1846.79 275.93 1871.77 290.36 1871.77 261.51"/><polygon class="cls-2" points="1915.56 333.67 1887.38 317.4 1887.38 349.93 1915.56 333.67"/><polygon class="cls-2" points="1923.48 345.14 1893.36 362.54 1923.48 379.92 1923.48 345.14"/><polygon class="cls-2" points="1969.2 420.27 1935.56 400.85 1935.56 439.69 1969.2 420.27"/><polygon class="cls-2" points="1975.09 428.96 1940.14 449.13 1975.09 469.32 1975.09 428.96"/><polygon class="cls-2" points="2020.77 506.87 1984.77 486.09 1984.77 527.65 2020.77 506.87"/><polygon class="cls-2" points="2025.53 514.79 1989.26 535.74 2025.53 556.68 2025.53 514.79"/><polygon class="cls-2" points="2018.98 564.61 1985.67 545.37 1985.67 583.84 2018.98 564.61"/><polygon class="cls-2" points="1971.26 608.79 1947.79 622.34 1971.26 635.89 1971.26 608.79"/><polygon class="cls-2" points="1958.57 651.21 1940.88 640.99 1940.88 661.42 1958.57 651.21"/><polygon class="cls-2" points="1916.1 704.34 1908.13 708.94 1916.1 713.54 1916.1 704.34"/><polygon class="cls-2" points="1899.85 737.81 1895.24 735.14 1895.24 740.47 1899.85 737.81"/><polygon class="cls-2" points="1297.39 275.93 1296.48 275.41 1296.48 276.46 1297.39 275.93"/><polygon class="cls-2" points="1314.14 245.86 1312.06 247.07 1314.14 248.27 1314.14 245.86"/><polygon class="cls-2" points="1350.45 189.33 1344.95 186.15 1344.95 192.5 1350.45 189.33"/><polygon class="cls-2" points="1351.38 131.6 1344.48 127.62 1344.48 135.58 1351.38 131.6"/><polygon class="cls-2" points="1416.82 125.75 1406.7 131.6 1416.82 137.45 1416.82 125.75"/><polygon class="cls-2" points="1454.69 131.6 1442.82 124.74 1442.82 138.46 1454.69 131.6"/><polygon class="cls-2" points="1518.39 123.03 1503.56 131.6 1518.39 140.16 1518.39 123.03"/><polygon class="cls-2" points="1557.47 131.6 1541.43 122.34 1541.43 140.86 1557.47 131.6"/><polygon class="cls-2" points="1619.1 121.8 1602.13 131.6 1619.1 141.4 1619.1 121.8"/><polygon class="cls-2" points="1658.31 131.6 1641.02 121.61 1641.02 141.58 1658.31 131.6"/><polygon class="cls-2" points="1718.92 122.11 1702.49 131.6 1718.92 141.08 1718.92 122.11"/><polygon class="cls-2" points="1757.55 131.6 1741.39 122.27 1741.39 140.93 1757.55 131.6"/><polygon class="cls-2" points="1818.38 123.03 1803.56 131.6 1818.38 140.16 1818.38 123.03"/><polygon class="cls-2" points="1859.96 189.33 1840.18 177.91 1840.18 200.75 1859.96 189.33"/><polygon class="cls-2" points="1870.85 205.36 1848.62 218.2 1870.85 231.04 1870.85 205.36"/><polygon class="cls-2" points="1913.77 275.93 1888.28 261.21 1888.28 290.65 1913.77 275.93"/><polygon class="cls-2" points="1922.55 289.01 1895.21 304.8 1922.55 320.59 1922.55 289.01"/><polygon class="cls-2" points="1967.97 362.54 1936.18 344.18 1936.18 380.89 1967.97 362.54"/><polygon class="cls-2" points="1974.77 371.77 1940.78 391.4 1974.77 411.03 1974.77 371.77"/><polygon class="cls-2" points="2021.55 449.13 1984.38 427.68 1984.38 470.59 2021.55 449.13"/><polygon class="cls-2" points="2025.96 456.32 1988.39 478 2025.96 499.69 2025.96 456.32"/><polygon class="cls-2" points="2072.06 535.74 2034.13 513.84 2034.13 557.64 2072.06 535.74"/><polygon class="cls-2" points="2024.08 575.05 1992.17 593.47 2024.08 611.9 2024.08 575.05"/><polygon class="cls-2" points="2014.87 622.34 1987.72 606.67 1987.72 638.01 2014.87 622.34"/><polygon class="cls-2" points="1968.77 670.85 1952.78 680.08 1968.77 689.3 1968.77 670.85"/><polygon class="cls-2" points="1954.17 708.94 1943.08 702.54 1943.08 715.34 1954.17 708.94"/><polygon class="cls-2" points="1914.64 764.59 1911.04 766.67 1914.64 768.75 1914.64 764.59"/><polygon class="cls-2" points="1897.38 795.54 1896.47 795.02 1896.47 796.07 1897.38 795.54"/><polygon class="cls-2" points="1263.6 275.67 1263.16 275.93 1263.6 276.19 1263.6 275.67"/><polygon class="cls-2" points="1298.45 218.2 1295.95 216.76 1295.95 219.64 1298.45 218.2"/><polygon class="cls-2" points="1314.78 187.02 1310.78 189.33 1314.78 191.64 1314.78 187.02"/><polygon class="cls-2" points="1366.06 98.21 1358.23 102.73 1366.06 107.25 1366.06 98.21"/><polygon class="cls-2" points="1402.86 102.73 1393.75 97.47 1393.75 107.99 1402.86 102.73"/><polygon class="cls-2" points="1467.4 95.87 1455.53 102.73 1467.4 109.59 1467.4 95.87"/><polygon class="cls-2" points="1505.39 102.73 1492.48 95.28 1492.48 110.18 1505.39 102.73"/><polygon class="cls-2" points="1568.29 94.34 1553.76 102.73 1568.29 111.12 1568.29 94.34"/><polygon class="cls-2" points="1606.63 102.73 1591.86 94.2 1591.86 111.26 1606.63 102.73"/><polygon class="cls-2" points="1668.29 94.33 1653.75 102.73 1668.29 111.13 1668.29 94.33"/><polygon class="cls-2" points="1706.14 102.73 1692.1 94.62 1692.1 110.84 1706.14 102.73"/><polygon class="cls-2" points="1767.81 95.18 1754.72 102.73 1767.81 110.28 1767.81 95.18"/><polygon class="cls-2" points="1805.01 102.73 1792.66 95.6 1792.66 109.86 1805.01 102.73"/><polygon class="cls-2" points="1856.45 131.6 1841.94 123.22 1841.94 139.98 1856.45 131.6"/><polygon class="cls-2" points="1869.14 150.59 1852.04 160.46 1869.14 170.34 1869.14 150.59"/><polygon class="cls-2" points="1911.52 218.2 1889.4 205.43 1889.4 230.97 1911.52 218.2"/><polygon class="cls-2" points="1921.48 233.14 1897.36 247.07 1921.48 260.99 1921.48 233.14"/><polygon class="cls-2" points="1965.51 304.8 1937.4 288.58 1937.4 321.02 1965.51 304.8"/><polygon class="cls-2" points="1973.58 316.09 1943.15 333.67 1973.58 351.24 1973.58 316.09"/><polygon class="cls-2" points="2020.21 391.4 1985.05 371.11 1985.05 411.7 2020.21 391.4"/><polygon class="cls-2" points="2025.83 398.81 1988.66 420.27 2025.83 441.73 2025.83 398.81"/><polygon class="cls-2" points="2072.57 478 2033.88 455.66 2033.88 500.34 2072.57 478"/><polygon class="cls-2" points="2076.43 484.37 2037.46 506.87 2076.43 529.38 2076.43 484.37"/><polygon class="cls-2" points="2075.69 543.38 2038.93 564.61 2075.69 585.83 2075.69 543.38"/><polygon class="cls-2" points="2069.29 593.47 2035.51 573.97 2035.51 612.98 2069.29 593.47"/><polygon class="cls-2" points="2021.64 637 1997.04 651.21 2021.64 665.41 2021.64 637"/><polygon class="cls-2" points="2009.66 680.08 1990.33 668.92 1990.33 691.23 2009.66 680.08"/><polygon class="cls-2" points="1966.82 731.95 1956.68 737.81 1966.82 743.66 1966.82 731.95"/><polygon class="cls-2" points="1950.76 766.67 1944.79 763.23 1944.79 770.12 1950.76 766.67"/><polygon class="cls-2" points="1913.44 824.4 1913.44 824.41 1913.44 824.42 1913.44 824.4"/><polygon class="cls-2" points="1247.33 247.07 1246.51 246.6 1246.51 247.54 1247.33 247.07"/><polygon class="cls-2" points="1263.99 217.26 1262.37 218.2 1263.99 219.13 1263.99 217.26"/><polygon class="cls-2" points="1299.5 160.46 1295.43 158.11 1295.43 162.82 1299.5 160.46"/><polygon class="cls-2" points="1315.24 128.49 1309.86 131.6 1315.24 134.7 1315.24 128.49"/><polygon class="cls-2" points="1315.38 70.52 1309.59 73.86 1315.38 77.2 1315.38 70.52"/><polygon class="cls-2" points="1351.38 73.86 1344.48 69.88 1344.48 77.84 1351.38 73.86"/><polygon class="cls-2" points="1416.48 68.61 1407.38 73.86 1416.48 79.12 1416.48 68.61"/><polygon class="cls-2" points="1453.56 73.86 1443.39 68 1443.39 79.73 1453.56 73.86"/><polygon class="cls-2" points="1517.34 67.11 1505.65 73.86 1517.34 80.61 1517.34 67.11"/><polygon class="cls-2" points="1554.85 73.86 1542.74 66.87 1542.74 80.85 1554.85 73.86"/><polygon class="cls-2" points="1617.51 66.82 1605.31 73.86 1617.51 80.91 1617.51 66.82"/><polygon class="cls-2" points="1654.76 73.86 1642.79 66.95 1642.79 80.77 1654.76 73.86"/><polygon class="cls-2" points="1717.17 67.41 1706 73.86 1717.17 80.32 1717.17 67.41"/><polygon class="cls-2" points="1753.87 73.86 1743.23 67.72 1743.23 80.01 1753.87 73.86"/><polygon class="cls-2" points="1816.69 68.25 1806.96 73.86 1816.69 79.48 1816.69 68.25"/><polygon class="cls-2" points="1853.28 73.86 1843.52 68.23 1843.52 79.49 1853.28 73.86"/><polygon class="cls-2" points="1867.45 95.79 1855.42 102.73 1867.45 109.67 1867.45 95.79"/><polygon class="cls-2" points="1908.01 160.46 1891.15 150.73 1891.15 170.2 1908.01 160.46"/><polygon class="cls-2" points="1919.9 178.14 1900.52 189.33 1919.9 200.52 1919.9 178.14"/><polygon class="cls-2" points="1963 247.07 1938.66 233 1938.66 261.12 1963 247.07"/><polygon class="cls-2" points="1972.17 260.81 1945.97 275.93 1972.17 291.06 1972.17 260.81"/><polygon class="cls-2" points="2017.36 333.67 1986.48 315.84 1986.48 351.5 2017.36 333.67"/><polygon class="cls-2" points="2024.53 343.32 1991.25 362.54 2024.53 381.75 2024.53 343.32"/><polygon class="cls-2" points="2071.82 420.27 2034.25 398.57 2034.25 441.96 2071.82 420.27"/><polygon class="cls-2" points="2076.36 426.75 2037.58 449.13 2076.36 471.52 2076.36 426.75"/><polygon class="cls-2" points="2122.76 506.87 2083.78 484.37 2083.78 529.38 2122.76 506.87"/><polygon class="cls-2" points="2126.18 513.68 2087.96 535.74 2126.18 557.8 2126.18 513.68"/><polygon class="cls-2" points="2121.5 564.61 2084.41 543.2 2084.41 586.02 2121.5 564.61"/><polygon class="cls-2" points="2073.74 604.49 2042.83 622.34 2073.74 640.18 2073.74 604.49"/><polygon class="cls-2" points="2064.34 651.21 2037.99 636 2037.99 666.42 2064.34 651.21"/><polygon class="cls-2" points="2019.04 699.24 2002.24 708.94 2019.04 718.64 2019.04 699.24"/><polygon class="cls-2" points="2005.28 737.81 1992.52 730.43 1992.52 745.18 2005.28 737.81"/><polygon class="cls-2" points="1964.89 793.03 1960.54 795.54 1964.89 798.06 1964.89 793.03"/><polygon class="cls-2" points="1947.69 824.41 1946.31 823.61 1946.31 825.21 1947.69 824.41"/><polygon class="cls-2" points="1196.79 275.93 1196.78 275.93 1196.78 275.94 1196.79 275.93"/><polygon class="cls-2" points="1213.6 246.81 1213.15 247.07 1213.6 247.32 1213.6 246.81"/><polygon class="cls-2" points="1248.13 189.33 1246.11 188.17 1246.11 190.49 1248.13 189.33"/><polygon class="cls-2" points="1264.45 158.74 1261.45 160.46 1264.45 162.2 1264.45 158.74"/><polygon class="cls-2" points="1300.13 102.73 1295.11 99.83 1295.11 105.63 1300.13 102.73"/><polygon class="cls-2" points="1300.2 45 1295.07 42.04 1295.07 47.95 1300.2 45"/><polygon class="cls-2" points="1365.75 41.02 1358.85 45 1365.75 48.98 1365.75 41.02"/><polygon class="cls-2" points="1401.88 45 1394.24 40.59 1394.24 49.41 1401.88 45"/><polygon class="cls-2" points="1466.51 39.7 1457.32 45 1466.51 50.3 1466.51 39.7"/><polygon class="cls-2" points="1503.24 45 1493.55 39.41 1493.55 50.59 1503.24 45"/><polygon class="cls-2" points="1566.86 39.07 1556.61 45 1566.86 50.92 1566.86 39.07"/><polygon class="cls-2" points="1603.49 45 1593.42 39.18 1593.42 50.81 1603.49 45"/><polygon class="cls-2" points="1666.68 39.4 1656.98 45 1666.68 50.59 1666.68 39.4"/><polygon class="cls-2" points="1702.94 45 1693.7 39.65 1693.7 50.34 1702.94 45"/><polygon class="cls-2" points="1766.25 40.14 1757.84 45 1766.25 49.86 1766.25 40.14"/><polygon class="cls-2" points="1802.04 45 1794.14 40.44 1794.14 49.55 1802.04 45"/><polygon class="cls-2" points="1866.15 40.31 1858.04 45 1866.15 49.68 1866.15 40.31"/><polygon class="cls-2" points="1904.76 102.73 1892.78 95.81 1892.78 109.65 1904.76 102.73"/><polygon class="cls-2" points="1918.24 123.29 1903.85 131.6 1918.24 139.9 1918.24 123.29"/><polygon class="cls-2" points="1959.56 189.33 1940.38 178.26 1940.38 200.41 1959.56 189.33"/><polygon class="cls-2" points="1970.73 205.57 1948.85 218.2 1970.73 230.83 1970.73 205.57"/><polygon class="cls-2" points="2014 275.93 1988.16 261.01 1988.16 290.86 2014 275.93"/><polygon class="cls-2" points="2022.7 288.76 1994.92 304.8 2022.7 320.84 2022.7 288.76"/><polygon class="cls-2" points="2068.74 362.54 2035.79 343.5 2035.79 381.56 2068.74 362.54"/><polygon class="cls-2" points="2075.23 370.99 2039.87 391.4 2075.23 411.82 2075.23 370.99"/><polygon class="cls-2" points="2122.44 449.13 2083.94 426.91 2083.94 471.36 2122.44 449.13"/><polygon class="cls-2" points="2126.3 455.72 2087.72 478 2126.3 500.28 2126.3 455.72"/><polygon class="cls-2" points="2171.58 535.74 2134.37 514.26 2134.37 557.22 2171.58 535.74"/><polygon class="cls-2" points="2124.82 573.75 2090.67 593.47 2124.82 613.19 2124.82 573.75"/><polygon class="cls-2" points="2117.46 622.34 2086.43 604.42 2086.43 640.25 2117.46 622.34"/><polygon class="cls-2" points="2070.82 667.3 2048.68 680.08 2070.82 692.85 2070.82 667.3"/><polygon class="cls-2" points="2058.88 708.94 2040.72 698.46 2040.72 719.42 2058.88 708.94"/><polygon class="cls-2" points="2016.87 760.73 2006.57 766.67 2016.87 772.62 2016.87 760.73"/><polygon class="cls-2" points="2000.87 795.54 1994.72 791.99 1994.72 799.09 2000.87 795.54"/><polygon class="cls-2" points="1963.54 853.11 1963.25 853.27 1963.54 853.44 1963.54 853.11"/><polygon class="cls-2" points="1197.33 218.2 1196.52 217.73 1196.52 218.67 1197.33 218.2"/><polygon class="cls-2" points="1213.91 188.53 1212.53 189.33 1213.91 190.13 1213.91 188.53"/><polygon class="cls-2" points="1248.85 131.6 1245.75 129.81 1245.75 133.39 1248.85 131.6"/><polygon class="cls-2" points="1264.73 100.5 1260.88 102.73 1264.73 104.96 1264.73 100.5"/><polygon class="cls-2" points="1315.21 13.08 1309.93 16.13 1315.21 19.17 1315.21 13.08"/><polygon class="cls-2" points="1350.69 16.13 1344.83 12.74 1344.83 19.51 1350.69 16.13"/><polygon class="cls-2" points="1415.73 12.16 1408.87 16.13 1415.73 20.09 1415.73 12.16"/><polygon class="cls-2" points="1451.71 16.13 1444.32 11.87 1444.32 20.39 1451.71 16.13"/><polygon class="cls-2" points="1516.12 11.49 1508.09 16.13 1516.12 20.76 1516.12 11.49"/><polygon class="cls-2" points="1552.18 16.13 1544.08 11.45 1544.08 20.81 1552.18 16.13"/><polygon class="cls-2" points="1616.11 11.51 1608.11 16.13 1616.11 20.75 1616.11 11.51"/><polygon class="cls-2" points="1651.94 16.13 1644.2 11.66 1644.2 20.6 1651.94 16.13"/><polygon class="cls-2" points="1715.85 11.96 1708.63 16.13 1715.85 20.3 1715.85 11.96"/><polygon class="cls-2" points="1751.24 16.13 1744.55 12.26 1744.55 20 1751.24 16.13"/><polygon class="cls-2" points="1815.51 12.54 1809.3 16.13 1815.51 19.71 1815.51 12.54"/><polygon class="cls-2" points="1850.99 16.13 1844.67 12.48 1844.67 19.78 1850.99 16.13"/><polygon class="cls-2" points="1902.43 45 1893.95 40.1 1893.95 49.89 1902.43 45"/><polygon class="cls-2" points="1916.8 68.04 1906.72 73.86 1916.8 79.69 1916.8 68.04"/><polygon class="cls-2" points="1956.31 131.6 1942 123.33 1942 139.86 1956.31 131.6"/><polygon class="cls-2" points="1968.9 151 1952.52 160.46 1968.9 169.93 1968.9 151"/><polygon class="cls-2" points="2010.85 218.2 1989.73 206 1989.73 230.4 2010.85 218.2"/><polygon class="cls-2" points="2021.12 233.76 1998.08 247.07 2021.12 260.37 2021.12 233.76"/><polygon class="cls-2" points="2064.71 304.8 2037.8 289.26 2037.8 320.33 2064.71 304.8"/><polygon class="cls-2" points="2073.3 316.6 2043.73 333.67 2073.3 350.74 2073.3 316.6"/><polygon class="cls-2" points="2119.87 391.4 2085.23 371.4 2085.23 411.4 2119.87 391.4"/><polygon class="cls-2" points="2125.63 399.15 2089.06 420.27 2125.63 441.38 2125.63 399.15"/><polygon class="cls-2" points="2171.71 478 2134.3 456.4 2134.3 499.6 2171.71 478"/><polygon class="cls-2" points="2175.84 485.39 2138.63 506.87 2175.84 528.35 2175.84 485.39"/><polygon class="cls-2" points="2175.03 544.52 2140.24 564.61 2175.03 584.7 2175.03 544.52"/><polygon class="cls-2" points="2168.85 593.47 2135.73 574.35 2135.73 612.59 2168.85 593.47"/><polygon class="cls-2" points="2122.34 635.79 2095.64 651.21 2122.34 666.62 2122.34 635.79"/><polygon class="cls-2" points="2111.71 680.08 2089.3 667.14 2089.3 693.01 2111.71 680.08"/><polygon class="cls-2" points="2068.41 729.2 2053.5 737.81 2068.41 746.42 2068.41 729.2"/><polygon class="cls-2" points="2054.07 766.67 2043.13 760.36 2043.13 772.99 2054.07 766.67"/><polygon class="cls-2" points="2014.72 822.18 2010.87 824.41 2014.72 826.63 2014.72 822.18"/><polygon class="cls-2" points="1997.7 853.27 1996.31 852.48 1996.31 854.07 1997.7 853.27"/><polygon class="cls-2" points="1197.87 160.46 1196.24 159.53 1196.24 161.4 1197.87 160.46"/><polygon class="cls-2" points="1214.21 130.28 1211.93 131.6 1214.21 132.92 1214.21 130.28"/><polygon class="cls-2" points="1249.18 73.86 1245.59 71.78 1245.59 75.94 1249.18 73.86"/><polygon class="cls-2" points="1264.82 42.63 1260.71 45 1264.82 47.37 1264.82 42.63"/><polygon class="cls-2" points="1915.93 11.82 1908.47 16.13 1915.93 20.44 1915.93 11.82"/><polygon class="cls-2" points="1953.72 73.86 1943.3 67.84 1943.3 79.88 1953.72 73.86"/><polygon class="cls-2" points="1967.48 95.73 1955.36 102.73 1967.48 109.73 1967.48 95.73"/><polygon class="cls-2" points="2007.31 160.46 1991.51 151.34 1991.51 169.59 2007.31 160.46"/><polygon class="cls-2" points="2019.34 179.12 2001.64 189.33 2019.34 199.55 2019.34 179.12"/><polygon class="cls-2" points="2061.41 247.07 2039.46 234.39 2039.46 259.74 2061.41 247.07"/><polygon class="cls-2" points="2071.31 262.29 2047.68 275.93 2071.31 289.58 2071.31 262.29"/><polygon class="cls-2" points="2115.75 333.67 2087.28 317.23 2087.28 350.1 2115.75 333.67"/><polygon class="cls-2" points="2123.81 344.56 2092.69 362.54 2123.81 380.5 2123.81 344.56"/><polygon class="cls-2" points="2170.35 420.27 2134.98 399.85 2134.98 440.69 2170.35 420.27"/><polygon class="cls-2" points="2175.55 428.17 2139.22 449.13 2175.55 470.1 2175.55 428.17"/><polygon class="cls-2" points="2220.53 506.87 2184.89 486.29 2184.89 527.45 2220.53 506.87"/><polygon class="cls-2" points="2224.85 515.97 2190.61 535.74 2224.85 555.51 2224.85 515.97"/><polygon class="cls-2" points="2218.79 564.61 2185.76 545.53 2185.76 583.68 2218.79 564.61"/><polygon class="cls-2" points="2173.03 605.73 2144.26 622.34 2173.03 638.95 2173.03 605.73"/><polygon class="cls-2" points="2163.84 651.21 2138.24 636.43 2138.24 665.99 2163.84 651.21"/><polygon class="cls-2" points="2119.52 698.41 2101.28 708.94 2119.52 719.47 2119.52 698.41"/><polygon class="cls-2" points="2106.61 737.81 2091.85 729.29 2091.85 746.33 2106.61 737.81"/><polygon class="cls-2" points="2065.86 791.35 2058.6 795.54 2065.86 799.73 2065.86 791.35"/><polygon class="cls-2" points="2049.66 824.41 2045.33 821.91 2045.33 826.9 2049.66 824.41"/><polygon class="cls-2" points="2013.45 882.14 2013.43 882.14 2013.45 882.15 2013.45 882.14"/><polygon class="cls-2" points="1198.29 102.73 1196.03 101.43 1196.03 104.03 1198.29 102.73"/><polygon class="cls-2" points="1214.38 72.26 1211.6 73.86 1214.38 75.46 1214.38 72.26"/><polygon class="cls-2" points="1249.18 16.13 1245.59 14.05 1245.59 18.21 1249.18 16.13"/><polygon class="cls-2" points="1951.99 16.13 1944.17 11.61 1944.17 20.65 1951.99 16.13"/><polygon class="cls-2" points="1966.56 39.59 1957.19 45 1966.56 50.41 1966.56 39.59"/><polygon class="cls-2" points="2004.73 102.73 1992.79 95.84 1992.79 109.62 2004.73 102.73"/><polygon class="cls-2" points="2017.9 123.87 2004.52 131.6 2017.9 139.33 2017.9 123.87"/><polygon class="cls-2" points="2057.8 189.33 2041.26 179.79 2041.26 198.88 2057.8 189.33"/><polygon class="cls-2" points="2069.62 207.49 2051.07 218.2 2069.62 228.91 2069.62 207.49"/><polygon class="cls-2" points="2111.45 275.93 2089.43 263.22 2089.43 288.65 2111.45 275.93"/><polygon class="cls-2" points="2121.51 290.81 2097.29 304.8 2121.51 318.78 2121.51 290.81"/><polygon class="cls-2" points="2166.56 362.54 2136.88 345.4 2136.88 379.68 2166.56 362.54"/><polygon class="cls-2" points="2174.16 372.83 2142 391.4 2174.16 409.97 2174.16 372.83"/><polygon class="cls-2" points="2220.07 449.13 2185.12 428.96 2185.12 469.31 2220.07 449.13"/><polygon class="cls-2" points="2225.11 457.8 2190.1 478 2225.11 498.21 2225.11 457.8"/><polygon class="cls-2" points="2268.44 535.74 2235.93 516.97 2235.93 554.51 2268.44 535.74"/><polygon class="cls-2" points="2223.09 576.74 2194.13 593.47 2223.09 610.2 2223.09 576.74"/><polygon class="cls-2" points="2214.33 622.34 2187.99 607.13 2187.99 637.55 2214.33 622.34"/><polygon class="cls-2" points="2170.18 668.4 2149.96 680.08 2170.18 691.75 2170.18 668.4"/><polygon class="cls-2" points="2158.39 708.94 2140.97 698.88 2140.97 719 2158.39 708.94"/><polygon class="cls-2" points="2117.07 760.38 2106.17 766.67 2117.07 772.98 2117.07 760.38"/><polygon class="cls-2" points="2101.56 795.54 2094.38 791.39 2094.38 799.69 2101.56 795.54"/><polygon class="cls-2" points="2064.06 852.2 2062.19 853.27 2064.06 854.35 2064.06 852.2"/><polygon class="cls-2" points="2046.78 882.14 2046.77 882.14 2046.77 882.15 2046.78 882.14"/><polygon class="cls-2" points="1198.45 45 1195.95 43.55 1195.95 46.44 1198.45 45"/><polygon class="cls-2" points="1214.4 14.48 1211.55 16.13 1214.4 17.77 1214.4 14.48"/><polygon class="cls-2" points="2003.15 45 1993.59 39.48 1993.59 50.51 2003.15 45"/><polygon class="cls-2" points="2016.98 67.72 2006.35 73.86 2016.98 80.01 2016.98 67.72"/><polygon class="cls-2" points="2055.13 131.6 2042.6 124.36 2042.6 138.84 2055.13 131.6"/><polygon class="cls-2" points="2067.95 152.66 2054.42 160.46 2067.95 168.27 2067.95 152.66"/><polygon class="cls-2" points="2107.95 218.2 2091.18 208.52 2091.18 227.87 2107.95 218.2"/><polygon class="cls-2" points="2119.61 236.38 2101.1 247.07 2119.61 257.75 2119.61 236.38"/><polygon class="cls-2" points="2161.61 304.8 2139.35 291.96 2139.35 317.64 2161.61 304.8"/><polygon class="cls-2" points="2171.83 319.14 2146.66 333.67 2171.83 348.19 2171.83 319.14"/><polygon class="cls-2" points="2217.2 391.4 2186.56 373.71 2186.56 409.09 2217.2 391.4"/><polygon class="cls-2" points="2224.33 401.41 2191.66 420.27 2224.33 439.13 2224.33 401.41"/><polygon class="cls-2" points="2269.21 478 2235.55 458.56 2235.55 497.44 2269.21 478"/><polygon class="cls-2" points="2274.38 487.92 2241.55 506.87 2274.38 525.82 2274.38 487.92"/><polygon class="cls-2" points="2273.08 547.9 2244.16 564.61 2273.08 581.3 2273.08 547.9"/><polygon class="cls-2" points="2264.45 593.47 2237.93 578.17 2237.93 608.78 2264.45 593.47"/><polygon class="cls-2" points="2220.51 638.96 2199.3 651.21 2220.51 663.45 2220.51 638.96"/><polygon class="cls-2" points="2208.8 680.08 2190.76 669.66 2190.76 690.49 2208.8 680.08"/><polygon class="cls-2" points="2167.73 730.37 2154.85 737.81 2167.73 745.24 2167.73 730.37"/><polygon class="cls-2" points="2153.41 766.67 2143.45 760.92 2143.45 772.42 2153.41 766.67"/><polygon class="cls-2" points="2114.8 822.05 2110.72 824.41 2114.8 826.76 2114.8 822.05"/><polygon class="cls-2" points="2097.9 853.27 2096.2 852.3 2096.2 854.26 2097.9 853.27"/><polygon class="cls-2" points="2016.36 11.07 2007.6 16.13 2016.36 21.19 2016.36 11.07"/><polygon class="cls-2" points="2053.74 73.86 2043.29 67.83 2043.29 79.9 2053.74 73.86"/><polygon class="cls-2" points="2067 96.56 2056.32 102.73 2067 108.89 2067 96.56"/><polygon class="cls-2" points="2104.69 160.46 2092.81 153.6 2092.81 167.33 2104.69 160.46"/><polygon class="cls-2" points="2117.82 181.75 2104.68 189.33 2117.82 196.92 2117.82 181.75"/><polygon class="cls-2" points="2157.76 247.07 2141.28 237.55 2141.28 256.58 2157.76 247.07"/><polygon class="cls-2" points="2169.45 265.53 2151.42 275.93 2169.45 286.34 2169.45 265.53"/><polygon class="cls-2" points="2212.46 333.67 2188.93 320.07 2188.93 347.26 2212.46 333.67"/><polygon class="cls-2" points="2222.29 347.19 2195.72 362.54 2222.29 377.88 2222.29 347.19"/><polygon class="cls-2" points="2267.81 420.27 2236.25 402.05 2236.25 438.48 2267.81 420.27"/><polygon class="cls-2" points="2274.33 430.28 2241.66 449.13 2274.33 467.99 2274.33 430.28"/><polygon class="cls-2" points="2318.04 506.87 2286.14 488.45 2286.14 525.29 2318.04 506.87"/><polygon class="cls-2" points="2323.49 518.33 2293.34 535.74 2323.49 553.14 2323.49 518.33"/><polygon class="cls-2" points="2315.13 564.61 2287.59 548.71 2287.59 580.5 2315.13 564.61"/><polygon class="cls-2" points="2270.54 610.03 2249.23 622.34 2270.54 634.65 2270.54 610.03"/><polygon class="cls-2" points="2259.11 651.21 2240.6 640.52 2240.6 661.89 2259.11 651.21"/><polygon class="cls-2" points="2217.91 701.2 2204.49 708.94 2217.91 716.68 2217.91 701.2"/><polygon class="cls-2" points="2204.11 737.81 2193.1 731.45 2193.1 744.17 2204.11 737.81"/><polygon class="cls-2" points="2165.34 792.25 2159.63 795.54 2165.34 798.84 2165.34 792.25"/><polygon class="cls-2" points="2149.17 824.41 2145.57 822.33 2145.57 826.49 2149.17 824.41"/><polygon class="cls-2" points="2113.44 882.14 2113.43 882.14 2113.44 882.15 2113.44 882.14"/><polygon class="cls-2" points="2052.8 16.13 2043.76 10.91 2043.76 21.34 2052.8 16.13"/><polygon class="cls-2" points="2066.62 39.48 2057.07 45 2066.62 50.51 2066.62 39.48"/><polygon class="cls-2" points="2103.03 102.73 2093.64 97.31 2093.64 108.15 2103.03 102.73"/><polygon class="cls-2" points="2116.63 126.07 2107.05 131.6 2116.63 137.13 2116.63 126.07"/><polygon class="cls-2" points="2154.18 189.33 2143.07 182.91 2143.07 195.75 2154.18 189.33"/><polygon class="cls-2" points="2167.63 210.93 2155.04 218.2 2167.63 225.47 2167.63 210.93"/><polygon class="cls-2" points="2207.44 275.93 2191.44 266.69 2191.44 285.17 2207.44 275.93"/><polygon class="cls-2" points="2219.61 294.11 2201.09 304.8 2219.61 315.49 2219.61 294.11"/><polygon class="cls-2" points="2263.69 362.54 2238.31 347.88 2238.31 377.19 2263.69 362.54"/><polygon class="cls-2" points="2272.88 375.06 2244.56 391.4 2272.88 407.75 2272.88 375.06"/><polygon class="cls-2" points="2318.06 449.13 2286.12 430.69 2286.12 467.58 2318.06 449.13"/><polygon class="cls-2" points="2324.11 459.52 2292.09 478 2324.11 496.49 2324.11 459.52"/><polygon class="cls-2" points="2321.15 580.11 2298 593.47 2321.15 606.84 2321.15 580.11"/><polygon class="cls-2" points="2309.73 622.34 2290.29 611.12 2290.29 633.56 2309.73 622.34"/><polygon class="cls-2" points="2267.84 672.44 2254.62 680.08 2267.84 687.71 2267.84 672.44"/><polygon class="cls-2" points="2254.11 708.94 2243.1 702.58 2243.1 715.3 2254.11 708.94"/><polygon class="cls-2" points="2215.68 762.78 2208.94 766.67 2215.68 770.57 2215.68 762.78"/><polygon class="cls-2" points="2199.73 795.54 2195.29 792.98 2195.29 798.1 2199.73 795.54"/><polygon class="cls-2" points="2163.82 852.61 2162.68 853.27 2163.82 853.93 2163.82 852.61"/><polygon class="cls-2" points="2102.47 45 2093.93 40.07 2093.93 49.92 2102.47 45"/><polygon class="cls-2" points="2116.18 69.11 2107.95 73.86 2116.18 78.61 2116.18 69.11"/><polygon class="cls-2" points="2151.95 131.6 2144.18 127.11 2144.18 136.08 2151.95 131.6"/><polygon class="cls-2" points="2166.1 155.86 2158.11 160.46 2166.1 165.08 2166.1 155.86"/><polygon class="cls-2" points="2203.72 218.2 2193.3 212.18 2193.3 224.21 2203.72 218.2"/><polygon class="cls-2" points="2217.51 240.02 2205.31 247.07 2217.51 254.11 2217.51 240.02"/><polygon class="cls-2" points="2258 304.8 2241.16 295.07 2241.16 314.52 2258 304.8"/><polygon class="cls-2" points="2270.31 321.76 2249.69 333.67 2270.31 345.58 2270.31 321.76"/><polygon class="cls-2" points="2315.14 391.4 2287.58 375.49 2287.58 407.31 2315.14 391.4"/><polygon class="cls-2" points="2323.42 402.98 2293.47 420.27 2323.42 437.56 2323.42 402.98"/><polygon class="cls-2" points="2304.47 680.08 2292.92 673.41 2292.92 686.74 2304.47 680.08"/><polygon class="cls-2" points="2265.77 733.76 2258.77 737.81 2265.77 741.85 2265.77 733.76"/><polygon class="cls-2" points="2250.07 766.67 2245.12 763.82 2245.12 769.53 2250.07 766.67"/><polygon class="cls-2" points="2213.98 823.47 2212.35 824.41 2213.98 825.35 2213.98 823.47"/><polygon class="cls-2" points="2197.06 853.27 2196.62 853.02 2196.62 853.53 2197.06 853.27"/><polygon class="cls-2" points="2116 11.69 2108.32 16.13 2116 20.56 2116 11.69"/><polygon class="cls-2" points="2151.16 73.86 2144.57 70.06 2144.57 77.67 2151.16 73.86"/><polygon class="cls-2" points="2165.45 99.25 2159.42 102.73 2165.45 106.21 2165.45 99.25"/><polygon class="cls-2" points="2200.85 160.46 2194.73 156.93 2194.73 164 2200.85 160.46"/><polygon class="cls-2" points="2215.75 185.33 2208.82 189.33 2215.75 193.33 2215.75 185.33"/><polygon class="cls-2" points="2253.61 247.07 2243.35 241.14 2243.35 252.99 2253.61 247.07"/><polygon class="cls-2" points="2267.6 268.72 2255.11 275.93 2267.6 283.15 2267.6 268.72"/><polygon class="cls-2" points="2309.86 333.67 2290.23 322.33 2290.23 345.01 2309.86 333.67"/><polygon class="cls-2" points="2321.33 348.86 2297.65 362.54 2321.33 376.2 2321.33 348.86"/><polygon class="cls-2" points="2300.41 737.81 2294.95 734.66 2294.95 740.96 2300.41 737.81"/><polygon class="cls-2" points="2264 794.56 2262.3 795.54 2264 796.52 2264 794.56"/><polygon class="cls-2" points="2247.22 824.41 2246.55 824.02 2246.55 824.8 2247.22 824.41"/><polygon class="cls-2" points="2151.03 16.13 2144.64 12.45 2144.64 19.81 2151.03 16.13"/><polygon class="cls-2" points="2165.35 41.68 2159.61 45 2165.35 48.31 2165.35 41.68"/><polygon class="cls-2" points="2199.64 102.73 2195.34 100.25 2195.34 105.21 2199.64 102.73"/><polygon class="cls-2" points="2214.8 129.24 2210.72 131.6 2214.8 133.95 2214.8 129.24"/><polygon class="cls-2" points="2250.16 189.33 2245.08 186.4 2245.08 192.27 2250.16 189.33"/><polygon class="cls-2" points="2265.62 214.42 2259.07 218.2 2265.62 221.98 2265.62 214.42"/><polygon class="cls-2" points="2304.11 275.93 2293.1 269.58 2293.1 282.29 2304.11 275.93"/><polygon class="cls-2" points="2297.37 795.54 2296.47 795.02 2296.47 796.07 2297.37 795.54"/><polygon class="cls-2" points="2199.7 45 2195.31 42.46 2195.31 47.53 2199.7 45"/><polygon class="cls-2" points="2214.61 71.83 2211.09 73.86 2214.61 75.89 2214.61 71.83"/><polygon class="cls-2" points="2248.34 131.6 2245.99 130.24 2245.99 132.96 2248.34 131.6"/><polygon class="cls-2" points="2264.34 158.9 2261.63 160.46 2264.34 162.03 2264.34 158.9"/><polygon class="cls-2" points="2300.18 218.2 2295.07 215.25 2295.07 221.15 2300.18 218.2"/><polygon class="cls-2" points="2214.78 13.8 2210.75 16.13 2214.78 18.46 2214.78 13.8"/><polygon class="cls-2" points="2248.23 73.86 2246.04 72.59 2246.04 75.13 2248.23 73.86"/><polygon class="cls-2" points="2263.89 101.93 2262.51 102.73 2263.89 103.53 2263.89 101.93"/><polygon class="cls-2" points="2297.73 160.46 2296.29 159.63 2296.29 161.3 2297.73 160.46"/><polygon class="cls-2" points="2248.81 16.13 2245.75 14.37 2245.75 17.89 2248.81 16.13"/><polygon class="cls-2" points="2264.13 43.79 2262.04 45 2264.13 46.21 2264.13 43.79"/><polygon class="cls-2" points="2297.02 102.73 2296.64 102.51 2296.64 102.95 2297.02 102.73"/><polygon class="cls-2" points="2297.54 45 2296.39 44.33 2296.39 45.67 2297.54 45"/></svg>